<?xml version="1.0" encoding="utf-8"?>
<!-- Generator: Adobe Illustrator 27.5.0, SVG Export Plug-In . SVG Version: 6.00 Build 0)  -->
<svg version="1.1" xmlns="http://www.w3.org/2000/svg" xmlns:xlink="http://www.w3.org/1999/xlink" x="0px" y="0px"
	 viewBox="0 0 800 800" style="enable-background:new 0 0 800 800;" xml:space="preserve">
<g id="_x31_200_x__x_800_px">
</g>
<g id="_x38_00_x__x_800_px_1_">
	<g>
		<rect style="fill:#E7E7E7;" width="800" height="800"/>
		
			<radialGradient id="SVGID_00000059991678560246795330000015972166911945196989_" cx="400" cy="400" r="400" gradientUnits="userSpaceOnUse">
			<stop  offset="0" style="stop-color:#FFFFFF"/>
			<stop  offset="0.1108" style="stop-color:#FAFAFA"/>
			<stop  offset="0.2348" style="stop-color:#EDEDED"/>
			<stop  offset="0.3651" style="stop-color:#D7D7D7"/>
			<stop  offset="0.4999" style="stop-color:#B7B7B7"/>
			<stop  offset="0.6381" style="stop-color:#8F8F8F"/>
			<stop  offset="0.7792" style="stop-color:#5D5D5D"/>
			<stop  offset="0.9199" style="stop-color:#242424"/>
			<stop  offset="1" style="stop-color:#000000"/>
		</radialGradient>
		<rect style="opacity:0.1;fill:url(#SVGID_00000059991678560246795330000015972166911945196989_);" width="800" height="800"/>
		<g>
			<defs>
				<rect id="SVGID_00000090270147437573739690000014067254457896960661_" width="800" height="800"/>
			</defs>
			<clipPath id="SVGID_00000008123171827595314490000014098247269669695384_">
				<use xlink:href="#SVGID_00000090270147437573739690000014067254457896960661_"  style="overflow:visible;"/>
			</clipPath>
			<g style="clip-path:url(#SVGID_00000008123171827595314490000014098247269669695384_);">
				<polygon style="fill:#FFFFFF;" points="497.772,819.861 146.425,-20.704 145.502,-20.318 496.689,819.861 				"/>
			</g>
			<g style="clip-path:url(#SVGID_00000008123171827595314490000014098247269669695384_);">
				<polygon style="fill:#FFFFFF;" points="164.485,819.861 493.172,0.186 492.244,-0.186 163.408,819.861 				"/>
			</g>
			<g style="clip-path:url(#SVGID_00000008123171827595314490000014098247269669695384_);">
				<polygon style="fill:#FFFFFF;" points="-29.224,314.429 -29.224,315.434 831.862,235.502 831.862,234.497 				"/>
			</g>
			<g style="clip-path:url(#SVGID_00000008123171827595314490000014098247269669695384_);">
				<polygon style="fill:#FFFFFF;" points="763.219,819.861 645.912,-41.225 644.903,-41.225 762.211,819.861 				"/>
			</g>
			<g style="clip-path:url(#SVGID_00000008123171827595314490000014098247269669695384_);">
				<polygon style="fill:#FFFFFF;" points="-29.224,819.261 -29.224,819.861 -28.366,819.861 831.862,148.828 831.862,147.56 				
					"/>
			</g>
			<g style="clip-path:url(#SVGID_00000008123171827595314490000014098247269669695384_);">
				<polygon style="fill:#FFFFFF;" points="-29.224,541.318 -29.224,542.361 831.862,798.429 831.862,797.386 				"/>
			</g>
			<g style="clip-path:url(#SVGID_00000008123171827595314490000014098247269669695384_);">
				<polygon style="fill:#FFFFFF;" points="785.203,819.861 676.389,-41.225 675.381,-41.225 784.195,819.861 				"/>
			</g>
			<g style="clip-path:url(#SVGID_00000008123171827595314490000014098247269669695384_);">
				<polygon style="fill:#FFFFFF;" points="-29.224,353.543 -29.224,354.593 831.862,630.992 831.862,629.942 				"/>
			</g>
			<g style="clip-path:url(#SVGID_00000008123171827595314490000014098247269669695384_);">
				<polygon style="fill:#FFFFFF;" points="287.422,819.861 17.883,-30.126 16.93,-29.824 286.373,819.861 				"/>
			</g>
			<g style="clip-path:url(#SVGID_00000008123171827595314490000014098247269669695384_);">
				<polygon style="fill:#FFFFFF;" points="546.232,819.861 219.434,-41.225 218.365,-41.225 545.162,819.861 				"/>
			</g>
			<g style="clip-path:url(#SVGID_00000008123171827595314490000014098247269669695384_);">
				<polygon style="fill:#FFFFFF;" points="126.589,819.861 678.467,-41.225 677.279,-41.225 125.401,819.861 				"/>
			</g>
			<g style="clip-path:url(#SVGID_00000008123171827595314490000014098247269669695384_);">
				<polygon style="fill:#FFFFFF;" points="-29.224,432.185 -29.224,433.219 831.862,659.315 831.862,658.282 				"/>
			</g>
			<g style="clip-path:url(#SVGID_00000008123171827595314490000014098247269669695384_);">
				<polygon style="fill:#FFFFFF;" points="-29.224,195.238 -29.224,196.25 831.862,330.513 831.862,329.5 				"/>
			</g>
			<g style="clip-path:url(#SVGID_00000008123171827595314490000014098247269669695384_);">
				<polygon style="fill:#FFFFFF;" points="82.061,819.861 761.364,-41.225 760.09,-41.225 80.787,819.861 				"/>
			</g>
			<g style="clip-path:url(#SVGID_00000008123171827595314490000014098247269669695384_);">
				<polygon style="fill:#FFFFFF;" points="152.383,819.861 800.374,89.315 799.626,88.652 151.046,819.861 				"/>
			</g>
			<g style="clip-path:url(#SVGID_00000008123171827595314490000014098247269669695384_);">
				<polygon style="fill:#FFFFFF;" points="409.813,819.861 831.862,342.466 831.862,340.956 408.479,819.861 				"/>
			</g>
			<g style="clip-path:url(#SVGID_00000008123171827595314490000014098247269669695384_);">
				<polygon style="fill:#FFFFFF;" points="-29.224,263.879 -29.224,264.913 831.862,492.211 831.862,491.177 				"/>
			</g>
			<g style="clip-path:url(#SVGID_00000008123171827595314490000014098247269669695384_);">
				<polygon style="fill:#FFFFFF;" points="-29.224,493.475 -29.224,494.515 831.862,738.638 831.862,737.598 				"/>
			</g>
			<g style="clip-path:url(#SVGID_00000008123171827595314490000014098247269669695384_);">
				<polygon style="fill:#FFFFFF;" points="318.903,819.861 463.077,-41.225 462.063,-41.225 317.889,819.861 				"/>
			</g>
			<g style="clip-path:url(#SVGID_00000008123171827595314490000014098247269669695384_);">
				<polygon style="fill:#FFFFFF;" points="-29.224,703.867 812.886,-41.225 811.378,-41.225 -29.224,702.532 				"/>
			</g>
			<g style="clip-path:url(#SVGID_00000008123171827595314490000014098247269669695384_);">
				<polygon style="fill:#FFFFFF;" points="831.862,625.167 -19.224,-41.225 -20.846,-41.225 831.862,626.437 				"/>
			</g>
			<g style="clip-path:url(#SVGID_00000008123171827595314490000014098247269669695384_);">
				<polygon style="fill:#FFFFFF;" points="-29.224,466.163 695.617,-41.225 693.872,-41.225 -29.224,464.943 				"/>
			</g>
			<g style="clip-path:url(#SVGID_00000008123171827595314490000014098247269669695384_);">
				<polygon style="fill:#FFFFFF;" points="831.862,636.082 132.175,-41.225 130.737,-41.225 831.862,637.474 				"/>
			</g>
			<g style="clip-path:url(#SVGID_00000008123171827595314490000014098247269669695384_);">
				<polygon style="fill:#FFFFFF;" points="-29.224,297.703 574.594,-41.225 572.55,-41.225 -29.224,296.556 				"/>
			</g>
			<g style="clip-path:url(#SVGID_00000008123171827595314490000014098247269669695384_);">
				<polygon style="fill:#FFFFFF;" points="-29.224,313.832 -29.224,314.925 831.862,694.839 831.862,693.745 				"/>
			</g>
			<g style="clip-path:url(#SVGID_00000008123171827595314490000014098247269669695384_);">
				<polygon style="fill:#FFFFFF;" points="180.508,819.861 831.862,228.577 831.862,227.227 179.02,819.861 				"/>
			</g>
			<g style="clip-path:url(#SVGID_00000008123171827595314490000014098247269669695384_);">
				<polygon style="fill:#FFFFFF;" points="-29.224,41.8 -29.224,43.083 831.862,735.229 831.862,733.945 				"/>
			</g>
			<g style="clip-path:url(#SVGID_00000008123171827595314490000014098247269669695384_);">
				<polygon style="fill:#FFFFFF;" points="831.862,186.958 401.358,-41.225 399.222,-41.225 831.862,188.09 				"/>
			</g>
			<g style="clip-path:url(#SVGID_00000008123171827595314490000014098247269669695384_);">
				<polygon style="fill:#FFFFFF;" points="-29.224,708.738 707.639,-41.225 706.237,-41.225 -29.224,707.31 				"/>
			</g>
			<g style="clip-path:url(#SVGID_00000008123171827595314490000014098247269669695384_);">
				<polygon style="fill:#FFFFFF;" points="705.736,819.861 330.981,-14.716 330.069,-14.307 704.64,819.861 				"/>
			</g>
			<g style="clip-path:url(#SVGID_00000008123171827595314490000014098247269669695384_);">
				<polygon style="fill:#FFFFFF;" points="450.323,819.861 720.16,-39.139 719.205,-39.438 449.274,819.861 				"/>
			</g>
			<g style="clip-path:url(#SVGID_00000008123171827595314490000014098247269669695384_);">
				<polygon style="fill:#FFFFFF;" points="378.012,819.861 559.477,-32.935 558.499,-33.143 376.989,819.861 				"/>
			</g>
			<g style="clip-path:url(#SVGID_00000008123171827595314490000014098247269669695384_);">
				<polygon style="fill:#FFFFFF;" points="575.742,819.861 793.325,-24.032 792.356,-24.282 574.709,819.861 				"/>
			</g>
			<g style="clip-path:url(#SVGID_00000008123171827595314490000014098247269669695384_);">
				
					<rect x="-334.565" y="395.218" transform="matrix(0.1426 -0.9898 0.9898 0.1426 -317.9666 424.3777)" style="fill:#FFFFFF;" width="841.062" height="1"/>
			</g>
			<g style="clip-path:url(#SVGID_00000008123171827595314490000014098247269669695384_);">
				<polygon style="fill:#FFFFFF;" points="164.766,819.861 363.315,-36.897 362.341,-37.123 163.739,819.861 				"/>
			</g>
			<g style="clip-path:url(#SVGID_00000008123171827595314490000014098247269669695384_);">
				<polygon style="fill:#FFFFFF;" points="-29.224,394.346 -29.224,395.534 634.154,819.861 636.01,819.861 				"/>
			</g>
			<g style="clip-path:url(#SVGID_00000008123171827595314490000014098247269669695384_);">
				<polygon style="fill:#FFFFFF;" points="831.862,27.767 401.946,812.662 402.823,813.143 831.862,29.848 				"/>
			</g>
			<g style="clip-path:url(#SVGID_00000008123171827595314490000014098247269669695384_);">
				<polygon style="fill:#FFFFFF;" points="15.759,819.861 293.31,-41.225 292.26,-41.225 14.708,819.861 				"/>
			</g>
			<g style="clip-path:url(#SVGID_00000008123171827595314490000014098247269669695384_);">
				<polygon style="fill:#FFFFFF;" points="-29.224,142.658 -29.224,143.959 783.788,819.861 785.352,819.861 				"/>
			</g>
			<g style="clip-path:url(#SVGID_00000008123171827595314490000014098247269669695384_);">
				<polygon style="fill:#FFFFFF;" points="-29.224,429.306 -29.224,430.38 831.862,768.907 831.862,767.833 				"/>
			</g>
			<g style="clip-path:url(#SVGID_00000008123171827595314490000014098247269669695384_);">
				<polygon style="fill:#FFFFFF;" points="104.643,819.861 831.862,-39.856 831.862,-41.225 831.711,-41.225 103.333,819.861 				
					"/>
			</g>
			<g style="clip-path:url(#SVGID_00000008123171827595314490000014098247269669695384_);">
				<polygon style="fill:#FFFFFF;" points="823.561,819.861 25.013,-41.225 23.649,-41.225 822.199,819.861 				"/>
			</g>
			<g style="clip-path:url(#SVGID_00000008123171827595314490000014098247269669695384_);">
				<polygon style="fill:#FFFFFF;" points="361.281,819.861 338.72,-41.225 337.719,-41.225 360.281,819.861 				"/>
			</g>
			<g style="clip-path:url(#SVGID_00000008123171827595314490000014098247269669695384_);">
				<polygon style="fill:#FFFFFF;" points="207.076,819.861 439.634,-41.225 438.599,-41.225 206.04,819.861 				"/>
			</g>
			<g style="clip-path:url(#SVGID_00000008123171827595314490000014098247269669695384_);">
				<polygon style="fill:#FFFFFF;" points="831.862,90.702 187.155,-41.225 183.212,-41.225 183.17,-41.02 831.862,91.723 				"/>
			</g>
			<g style="clip-path:url(#SVGID_00000008123171827595314490000014098247269669695384_);">
				<polygon style="fill:#FFFFFF;" points="831.862,472.403 328.765,-41.225 327.365,-41.225 831.862,473.832 				"/>
			</g>
			<g style="clip-path:url(#SVGID_00000008123171827595314490000014098247269669695384_);">
				<polygon style="fill:#FFFFFF;" points="831.862,577.804 319.579,-35.83 318.811,-35.189 831.862,579.364 				"/>
			</g>
			<g style="clip-path:url(#SVGID_00000008123171827595314490000014098247269669695384_);">
				<polygon style="fill:#FFFFFF;" points="729.778,-41.225 351.923,336.63 352.63,337.337 731.192,-41.225 				"/>
			</g>
			<g style="clip-path:url(#SVGID_00000008123171827595314490000014098247269669695384_);">
				<polygon style="fill:#FFFFFF;" points="-29.224,109.91 -29.224,111.195 831.862,806.57 831.862,805.285 				"/>
			</g>
			<g style="clip-path:url(#SVGID_00000008123171827595314490000014098247269669695384_);">
				<polygon style="fill:#FFFFFF;" points="-29.224,807.244 640.92,-41.225 639.645,-41.225 -29.224,805.631 				"/>
			</g>
			<g style="clip-path:url(#SVGID_00000008123171827595314490000014098247269669695384_);">
				<polygon style="fill:#FFFFFF;" points="-29.224,362.325 -29.224,363.325 831.862,371.699 831.862,370.699 				"/>
			</g>
			<g style="clip-path:url(#SVGID_00000008123171827595314490000014098247269669695384_);">
				<rect x="136.493" y="-41.225" style="fill:#FFFFFF;" width="1" height="861.086"/>
			</g>
			<g style="clip-path:url(#SVGID_00000008123171827595314490000014098247269669695384_);">
				<polygon style="fill:#FFFFFF;" points="131.389,819.861 289.881,-30.598 288.897,-30.781 130.372,819.861 				"/>
			</g>
			<g style="clip-path:url(#SVGID_00000008123171827595314490000014098247269669695384_);">
				<polygon style="fill:#FFFFFF;" points="-29.224,506.423 429.975,-41.225 428.671,-41.225 -29.224,504.866 				"/>
			</g>
			<g style="clip-path:url(#SVGID_00000008123171827595314490000014098247269669695384_);">
				<polygon style="fill:#FFFFFF;" points="390.156,819.861 100.105,-41.225 99.05,-41.225 389.102,819.861 				"/>
			</g>
			<g style="clip-path:url(#SVGID_00000008123171827595314490000014098247269669695384_);">
				<polygon style="fill:#FFFFFF;" points="600.132,819.861 645.589,-41.225 644.588,-41.225 599.131,819.861 				"/>
			</g>
			<g style="clip-path:url(#SVGID_00000008123171827595314490000014098247269669695384_);">
				<polygon style="fill:#FFFFFF;" points="708.658,819.861 375.083,-41.225 374.011,-41.225 707.586,819.861 				"/>
			</g>
			<g style="clip-path:url(#SVGID_00000008123171827595314490000014098247269669695384_);">
				<polygon style="fill:#FFFFFF;" points="-29.224,560.468 810.471,209.485 810.086,208.562 -29.224,559.385 				"/>
			</g>
			<g style="clip-path:url(#SVGID_00000008123171827595314490000014098247269669695384_);">
				<polygon style="fill:#FFFFFF;" points="-29.224,226.816 -29.224,227.893 789.581,556.232 789.954,555.305 				"/>
			</g>
			<g style="clip-path:url(#SVGID_00000008123171827595314490000014098247269669695384_);">
				<polygon style="fill:#FFFFFF;" points="548.302,819.861 470.293,-20.512 469.297,-20.419 547.298,819.861 				"/>
			</g>
			<g style="clip-path:url(#SVGID_00000008123171827595314490000014098247269669695384_);">
				<polygon style="fill:#FFFFFF;" points="17.017,819.861 831.862,708.853 831.862,707.844 9.614,819.861 				"/>
			</g>
			<g style="clip-path:url(#SVGID_00000008123171827595314490000014098247269669695384_);">
				<polygon style="fill:#FFFFFF;" points="-29.224,34.183 -29.224,35.808 582.386,819.861 583.655,819.861 				"/>
			</g>
			<g style="clip-path:url(#SVGID_00000008123171827595314490000014098247269669695384_);">
				<polygon style="fill:#FFFFFF;" points="14.703,819.861 270.771,-41.225 269.727,-41.225 13.66,819.861 				"/>
			</g>
			<g style="clip-path:url(#SVGID_00000008123171827595314490000014098247269669695384_);">
				<polygon style="fill:#FFFFFF;" points="194.661,819.861 831.862,739.339 831.862,738.331 186.684,819.861 				"/>
			</g>
			<g style="clip-path:url(#SVGID_00000008123171827595314490000014098247269669695384_);">
				<polygon style="fill:#FFFFFF;" points="183.92,819.861 460.319,-41.225 459.269,-41.225 182.87,819.861 				"/>
			</g>
			<g style="clip-path:url(#SVGID_00000008123171827595314490000014098247269669695384_);">
				<polygon style="fill:#FFFFFF;" points="-29.224,350.206 819.894,80.943 819.591,79.99 -29.224,349.158 				"/>
			</g>
			<g style="clip-path:url(#SVGID_00000008123171827595314490000014098247269669695384_);">
				<polygon style="fill:#FFFFFF;" points="-29.224,607.892 -29.224,608.962 831.862,282.164 831.862,281.094 				"/>
			</g>
			<g style="clip-path:url(#SVGID_00000008123171827595314490000014098247269669695384_);">
				<polygon style="fill:#FFFFFF;" points="-29.224,189.018 -29.224,190.206 831.862,742.083 831.862,740.896 				"/>
			</g>
			<g style="clip-path:url(#SVGID_00000008123171827595314490000014098247269669695384_);">
				<polygon style="fill:#FFFFFF;" points="151.195,819.861 376.534,-38.337 375.566,-38.591 150.161,819.861 				"/>
			</g>
			<g style="clip-path:url(#SVGID_00000008123171827595314490000014098247269669695384_);">
				<polygon style="fill:#FFFFFF;" points="471.971,819.861 602.283,-15.888 601.295,-16.042 470.959,819.861 				"/>
			</g>
			<g style="clip-path:url(#SVGID_00000008123171827595314490000014098247269669695384_);">
				<polygon style="fill:#FFFFFF;" points="-29.224,144.533 -29.224,145.807 825.209,819.861 826.823,819.861 				"/>
			</g>
			<g style="clip-path:url(#SVGID_00000008123171827595314490000014098247269669695384_);">
				<polygon style="fill:#FFFFFF;" points="-29.224,214.878 -29.224,216.214 651.328,819.861 652.836,819.861 				"/>
			</g>
			<g style="clip-path:url(#SVGID_00000008123171827595314490000014098247269669695384_);">
				<polygon style="fill:#FFFFFF;" points="-29.224,472.307 -29.224,473.642 362.397,819.861 363.908,819.861 				"/>
			</g>
			<g style="clip-path:url(#SVGID_00000008123171827595314490000014098247269669695384_);">
				<polygon style="fill:#FFFFFF;" points="318.405,819.861 545.702,-41.225 544.668,-41.225 317.37,819.861 				"/>
			</g>
			<g style="clip-path:url(#SVGID_00000008123171827595314490000014098247269669695384_);">
				<polygon style="fill:#FFFFFF;" points="73.45,819.861 317.572,-41.225 316.533,-41.225 72.41,819.861 				"/>
			</g>
			<g style="clip-path:url(#SVGID_00000008123171827595314490000014098247269669695384_);">
				<polygon style="fill:#FFFFFF;" points="-29.224,381.095 -29.224,382.109 831.862,526.283 831.862,525.269 				"/>
			</g>
			<g style="clip-path:url(#SVGID_00000008123171827595314490000014098247269669695384_);">
				<polygon style="fill:#FFFFFF;" points="745.534,819.861 -16.349,-41.225 -17.684,-41.225 744.199,819.861 				"/>
			</g>
			<g style="clip-path:url(#SVGID_00000008123171827595314490000014098247269669695384_);">
				<polygon style="fill:#FFFFFF;" points="223.373,819.861 831.862,42.725 831.862,41.103 222.102,819.861 				"/>
			</g>
			<g style="clip-path:url(#SVGID_00000008123171827595314490000014098247269669695384_);">
				<polygon style="fill:#FFFFFF;" points="831.862,758.175 272.283,-41.225 271.062,-41.225 831.862,759.918 				"/>
			</g>
			<g style="clip-path:url(#SVGID_00000008123171827595314490000014098247269669695384_);">
				<polygon style="fill:#FFFFFF;" points="226.346,819.861 831.862,194.337 831.862,192.9 224.954,819.861 				"/>
			</g>
			<g style="clip-path:url(#SVGID_00000008123171827595314490000014098247269669695384_);">
				<polygon style="fill:#FFFFFF;" points="831.862,637.159 451.08,-41.225 449.933,-41.225 831.862,639.202 				"/>
			</g>
			<g style="clip-path:url(#SVGID_00000008123171827595314490000014098247269669695384_);">
				<polygon style="fill:#FFFFFF;" points="129.14,819.861 509.053,-41.225 507.96,-41.225 128.046,819.861 				"/>
			</g>
			<g style="clip-path:url(#SVGID_00000008123171827595314490000014098247269669695384_);">
				<polygon style="fill:#FFFFFF;" points="-29.224,243.038 -29.224,244.526 493.052,819.861 494.402,819.861 				"/>
			</g>
			<g style="clip-path:url(#SVGID_00000008123171827595314490000014098247269669695384_);">
				<polygon style="fill:#FFFFFF;" points="116.156,819.861 790.157,-18.652 789.378,-19.279 114.873,819.861 				"/>
			</g>
			<g style="clip-path:url(#SVGID_00000008123171827595314490000014098247269669695384_);">
				<polygon style="fill:#FFFFFF;" points="642.594,819.861 831.862,462.777 831.862,460.643 641.463,819.861 				"/>
			</g>
			<g style="clip-path:url(#SVGID_00000008123171827595314490000014098247269669695384_);">
				<polygon style="fill:#FFFFFF;" points="831.862,699.612 77.854,-41.225 76.428,-41.225 831.862,701.014 				"/>
			</g>
			<g style="clip-path:url(#SVGID_00000008123171827595314490000014098247269669695384_);">
				<polygon style="fill:#FFFFFF;" points="-29.224,768.405 804.483,394.042 804.073,393.129 -29.224,767.309 				"/>
			</g>
			<g style="clip-path:url(#SVGID_00000008123171827595314490000014098247269669695384_);">
				<polygon style="fill:#FFFFFF;" points="-29.224,512.607 -29.224,513.656 828.906,783.22 829.205,782.267 				"/>
			</g>
			<g style="clip-path:url(#SVGID_00000008123171827595314490000014098247269669695384_);">
				<polygon style="fill:#FFFFFF;" points="-29.224,440.233 -29.224,441.256 822.702,622.537 822.911,621.559 				"/>
			</g>
			<g style="clip-path:url(#SVGID_00000008123171827595314490000014098247269669695384_);">
				<polygon style="fill:#FFFFFF;" points="-29.224,637.993 -29.224,639.026 672.139,819.861 676.146,819.861 				"/>
			</g>
			<g style="clip-path:url(#SVGID_00000008123171827595314490000014098247269669695384_);">
				
					<rect x="393.549" y="-271.505" transform="matrix(0.1427 -0.9898 0.9898 0.1427 190.328 517.7828)" style="fill:#FFFFFF;" width="1" height="841.062"/>
			</g>
			<g style="clip-path:url(#SVGID_00000008123171827595314490000014098247269669695384_);">
				<polygon style="fill:#FFFFFF;" points="-29.224,227 -29.224,228.027 826.664,426.375 826.891,425.4 				"/>
			</g>
			<g style="clip-path:url(#SVGID_00000008123171827595314490000014098247269669695384_);">
				<polygon style="fill:#FFFFFF;" points="-29.224,697.71 418.469,-2.197 417.627,-2.736 -29.224,695.854 				"/>
			</g>
			<g style="clip-path:url(#SVGID_00000008123171827595314490000014098247269669695384_);">
				<polygon style="fill:#FFFFFF;" points="624.963,819.861 -22.895,465.006 -23.375,465.883 622.881,819.861 				"/>
			</g>
			<g style="clip-path:url(#SVGID_00000008123171827595314490000014098247269669695384_);">
				<polygon style="fill:#FFFFFF;" points="-29.224,78.049 -29.224,79.1 831.862,356.651 831.862,355.6 				"/>
			</g>
			<g style="clip-path:url(#SVGID_00000008123171827595314490000014098247269669695384_);">
				<polygon style="fill:#FFFFFF;" points="-6.357,819.861 709.512,-41.225 708.211,-41.225 -7.658,819.861 				"/>
			</g>
			<g style="clip-path:url(#SVGID_00000008123171827595314490000014098247269669695384_);">
				<polygon style="fill:#FFFFFF;" points="51.444,819.861 389.97,-41.225 388.897,-41.225 50.369,819.861 				"/>
			</g>
			<g style="clip-path:url(#SVGID_00000008123171827595314490000014098247269669695384_);">
				<polygon style="fill:#FFFFFF;" points="-29.224,167.128 -29.224,168.438 740.887,819.861 742.436,819.861 				"/>
			</g>
			<g style="clip-path:url(#SVGID_00000008123171827595314490000014098247269669695384_);">
				<polygon style="fill:#FFFFFF;" points="41.895,819.861 831.862,87.267 831.862,85.903 40.426,819.861 				"/>
			</g>
			<g style="clip-path:url(#SVGID_00000008123171827595314490000014098247269669695384_);">
				<polygon style="fill:#FFFFFF;" points="-29.224,423.318 -29.224,424.318 831.862,401.757 831.862,400.756 				"/>
			</g>
			<g style="clip-path:url(#SVGID_00000008123171827595314490000014098247269669695384_);">
				<polygon style="fill:#FFFFFF;" points="-29.224,269.335 -29.224,270.37 831.862,502.929 831.862,501.893 				"/>
			</g>
			<g style="clip-path:url(#SVGID_00000008123171827595314490000014098247269669695384_);">
				<polygon style="fill:#FFFFFF;" points="714.426,819.861 831.768,246.431 830.787,246.23 713.404,819.861 				"/>
			</g>
			<g style="clip-path:url(#SVGID_00000008123171827595314490000014098247269669695384_);">
				<polygon style="fill:#FFFFFF;" points="393.997,819.861 831.862,390.973 831.862,389.573 392.567,819.861 				"/>
			</g>
			<g style="clip-path:url(#SVGID_00000008123171827595314490000014098247269669695384_);">
				<polygon style="fill:#FFFFFF;" points="301.874,819.861 825.598,382.639 824.957,381.872 300.314,819.861 				"/>
			</g>
			<g style="clip-path:url(#SVGID_00000008123171827595314490000014098247269669695384_);">
				<polygon style="fill:#FFFFFF;" points="831.862,793.709 453.137,414.983 452.43,415.69 831.862,795.123 				"/>
			</g>
			<g style="clip-path:url(#SVGID_00000008123171827595314490000014098247269669695384_);">
				<polygon style="fill:#FFFFFF;" points="45.099,819.861 740.474,-41.225 739.189,-41.225 43.813,819.861 				"/>
			</g>
			<g style="clip-path:url(#SVGID_00000008123171827595314490000014098247269669695384_);">
				<polygon style="fill:#FFFFFF;" points="-29.224,23.283 -29.224,24.558 831.862,704.665 831.862,703.391 				"/>
			</g>
			<g style="clip-path:url(#SVGID_00000008123171827595314490000014098247269669695384_);">
				<polygon style="fill:#FFFFFF;" points="419.799,819.861 428.172,-41.225 427.172,-41.225 418.799,819.861 				"/>
			</g>
			<g style="clip-path:url(#SVGID_00000008123171827595314490000014098247269669695384_);">
				<rect x="-29.224" y="199.553" style="fill:#FFFFFF;" width="861.086" height="1"/>
			</g>
			<g style="clip-path:url(#SVGID_00000008123171827595314490000014098247269669695384_);">
				<polygon style="fill:#FFFFFF;" points="-29.224,193.593 -29.224,194.611 820.365,352.941 820.549,351.957 				"/>
			</g>
			<g style="clip-path:url(#SVGID_00000008123171827595314490000014098247269669695384_);">
				<polygon style="fill:#FFFFFF;" points="831.862,492.46 195.382,-41.225 193.826,-41.225 831.862,493.764 				"/>
			</g>
			<g style="clip-path:url(#SVGID_00000008123171827595314490000014098247269669695384_);">
				<polygon style="fill:#FFFFFF;" points="-29.224,451.868 -29.224,452.923 831.862,162.872 831.862,161.817 				"/>
			</g>
			<g style="clip-path:url(#SVGID_00000008123171827595314490000014098247269669695384_);">
				<polygon style="fill:#FFFFFF;" points="-29.224,662.237 -29.224,663.238 831.862,708.695 831.862,707.694 				"/>
			</g>
			<g style="clip-path:url(#SVGID_00000008123171827595314490000014098247269669695384_);">
				<polygon style="fill:#FFFFFF;" points="-29.224,770.31 -29.224,771.382 831.862,437.806 831.862,436.734 				"/>
			</g>
			<g style="clip-path:url(#SVGID_00000008123171827595314490000014098247269669695384_);">
				<polygon style="fill:#FFFFFF;" points="586.124,819.861 240.697,-6.54 239.774,-6.154 585.041,819.861 				"/>
			</g>
			<g style="clip-path:url(#SVGID_00000008123171827595314490000014098247269669695384_);">
				<polygon style="fill:#FFFFFF;" points="265.752,819.861 611.046,-41.225 609.969,-41.225 264.675,819.861 				"/>
			</g>
			<g style="clip-path:url(#SVGID_00000008123171827595314490000014098247269669695384_);">
				<polygon style="fill:#FFFFFF;" points="-29.224,601.136 -29.224,602.141 831.862,522.209 831.862,521.204 				"/>
			</g>
			<g style="clip-path:url(#SVGID_00000008123171827595314490000014098247269669695384_);">
				<polygon style="fill:#FFFFFF;" points="95.725,819.861 -21.582,-41.225 -22.592,-41.225 94.715,819.861 				"/>
			</g>
			<g style="clip-path:url(#SVGID_00000008123171827595314490000014098247269669695384_);">
				<polygon style="fill:#FFFFFF;" points="-29.224,651.089 -29.224,652.358 831.862,-19.345 831.862,-20.613 				"/>
			</g>
			<g style="clip-path:url(#SVGID_00000008123171827595314490000014098247269669695384_);">
				<polygon style="fill:#FFFFFF;" points="-29.224,59.059 -29.224,60.102 831.862,316.17 831.862,315.127 				"/>
			</g>
			<g style="clip-path:url(#SVGID_00000008123171827595314490000014098247269669695384_);">
				<polygon style="fill:#FFFFFF;" points="-29.224,67.365 -29.224,75.342 64.86,819.861 65.868,819.861 				"/>
			</g>
			<g style="clip-path:url(#SVGID_00000008123171827595314490000014098247269669695384_);">
				<polygon style="fill:#FFFFFF;" points="-29.224,227.759 -29.224,228.809 831.862,505.207 831.862,504.157 				"/>
			</g>
			<g style="clip-path:url(#SVGID_00000008123171827595314490000014098247269669695384_);">
				<polygon style="fill:#FFFFFF;" points="715.925,819.861 442.866,-41.225 441.817,-41.225 714.876,819.861 				"/>
			</g>
			<g style="clip-path:url(#SVGID_00000008123171827595314490000014098247269669695384_);">
				<polygon style="fill:#FFFFFF;" points="506.946,819.861 180.148,-41.225 179.078,-41.225 505.875,819.861 				"/>
			</g>
			<g style="clip-path:url(#SVGID_00000008123171827595314490000014098247269669695384_);">
				<polygon style="fill:#FFFFFF;" points="112.28,819.861 664.158,-41.225 662.97,-41.225 111.093,819.861 				"/>
			</g>
			<g style="clip-path:url(#SVGID_00000008123171827595314490000014098247269669695384_);">
				<polygon style="fill:#FFFFFF;" points="-29.224,196.313 -29.224,197.347 831.862,423.444 831.862,422.41 				"/>
			</g>
			<g style="clip-path:url(#SVGID_00000008123171827595314490000014098247269669695384_);">
				<polygon style="fill:#FFFFFF;" points="-29.224,519.418 -29.224,520.43 828.153,654.114 828.308,653.126 				"/>
			</g>
			<g style="clip-path:url(#SVGID_00000008123171827595314490000014098247269669695384_);">
				<polygon style="fill:#FFFFFF;" points="38.785,819.861 718.089,-41.225 716.815,-41.225 37.512,819.861 				"/>
			</g>
			<g style="clip-path:url(#SVGID_00000008123171827595314490000014098247269669695384_);">
				<polygon style="fill:#FFFFFF;" points="-29.224,729.049 620.115,-3.016 619.367,-3.679 -29.224,727.542 				"/>
			</g>
			<g style="clip-path:url(#SVGID_00000008123171827595314490000014098247269669695384_);">
				<polygon style="fill:#FFFFFF;" points="-29.224,440.203 371.892,-13.516 371.143,-14.178 -29.224,438.693 				"/>
			</g>
			<g style="clip-path:url(#SVGID_00000008123171827595314490000014098247269669695384_);">
				<polygon style="fill:#FFFFFF;" points="-29.224,363.492 -29.224,364.526 831.862,591.824 831.862,590.79 				"/>
			</g>
			<g style="clip-path:url(#SVGID_00000008123171827595314490000014098247269669695384_);">
				<polygon style="fill:#FFFFFF;" points="-29.224,118.11 -29.224,119.149 831.862,363.271 831.862,362.232 				"/>
			</g>
			<g style="clip-path:url(#SVGID_00000008123171827595314490000014098247269669695384_);">
				<polygon style="fill:#FFFFFF;" points="297.684,819.861 441.858,-41.225 440.844,-41.225 296.67,819.861 				"/>
			</g>
			<g style="clip-path:url(#SVGID_00000008123171827595314490000014098247269669695384_);">
				<polygon style="fill:#FFFFFF;" points="-29.224,815.165 -29.224,816.501 831.862,54.618 831.862,53.283 				"/>
			</g>
			<g style="clip-path:url(#SVGID_00000008123171827595314490000014098247269669695384_);">
				<polygon style="fill:#FFFFFF;" points="-29.224,256.999 -29.224,258.269 688.016,819.861 689.638,819.861 				"/>
			</g>
			<g style="clip-path:url(#SVGID_00000008123171827595314490000014098247269669695384_);">
				<polygon style="fill:#FFFFFF;" points="145.279,819.861 831.862,339.254 831.862,338.033 143.537,819.861 				"/>
			</g>
			<g style="clip-path:url(#SVGID_00000008123171827595314490000014098247269669695384_);">
				<polygon style="fill:#FFFFFF;" points="-29.224,255.848 -29.224,257.24 551.988,819.861 553.426,819.861 				"/>
			</g>
			<g style="clip-path:url(#SVGID_00000008123171827595314490000014098247269669695384_);">
				<polygon style="fill:#FFFFFF;" points="288.826,819.861 831.862,515.05 831.862,513.903 286.783,819.861 				"/>
			</g>
			<g style="clip-path:url(#SVGID_00000008123171827595314490000014098247269669695384_);">
				<polygon style="fill:#FFFFFF;" points="-29.224,170.335 -29.224,171.428 831.862,551.342 831.862,550.249 				"/>
			</g>
			<g style="clip-path:url(#SVGID_00000008123171827595314490000014098247269669695384_);">
				<polygon style="fill:#FFFFFF;" points="-29.224,565.866 639.544,-41.225 638.057,-41.225 -29.224,564.516 				"/>
			</g>
			<g style="clip-path:url(#SVGID_00000008123171827595314490000014098247269669695384_);">
				<polygon style="fill:#FFFFFF;" points="-29.224,149.32 -29.224,150.603 803.389,819.861 804.985,819.861 				"/>
			</g>
			<g style="clip-path:url(#SVGID_00000008123171827595314490000014098247269669695384_);">
				<polygon style="fill:#FFFFFF;" points="-29.224,681.83 -29.224,682.961 229.059,819.861 231.193,819.861 				"/>
			</g>
			<g style="clip-path:url(#SVGID_00000008123171827595314490000014098247269669695384_);">
				<polygon style="fill:#FFFFFF;" points="175.371,819.861 831.862,151.698 831.862,150.271 173.968,819.861 				"/>
			</g>
			<g style="clip-path:url(#SVGID_00000008123171827595314490000014098247269669695384_);">
				<polygon style="fill:#FFFFFF;" points="402.951,819.861 16.294,-41.225 15.198,-41.225 401.855,819.861 				"/>
			</g>
			<g style="clip-path:url(#SVGID_00000008123171827595314490000014098247269669695384_);">
				<polygon style="fill:#FFFFFF;" points="49.216,819.861 319.709,-41.225 318.661,-41.225 48.168,819.861 				"/>
			</g>
			<g style="clip-path:url(#SVGID_00000008123171827595314490000014098247269669695384_);">
				<polygon style="fill:#FFFFFF;" points="202.385,819.861 385.614,-41.225 384.591,-41.225 201.362,819.861 				"/>
			</g>
			<g style="clip-path:url(#SVGID_00000008123171827595314490000014098247269669695384_);">
				<polygon style="fill:#FFFFFF;" points="-29.224,811.862 190.73,-41.225 189.697,-41.225 -29.224,807.855 				"/>
			</g>
			<g style="clip-path:url(#SVGID_00000008123171827595314490000014098247269669695384_);">
				<polygon style="fill:#FFFFFF;" points="609.837,819.861 723.731,29.722 722.741,29.58 608.827,819.861 				"/>
			</g>
			<g style="clip-path:url(#SVGID_00000008123171827595314490000014098247269669695384_);">
				<polygon style="fill:#FFFFFF;" points="400.505,819.861 594.729,-18.234 593.755,-18.459 399.478,819.861 				"/>
			</g>
			<g style="clip-path:url(#SVGID_00000008123171827595314490000014098247269669695384_);">
				<polygon style="fill:#FFFFFF;" points="14.762,-41.225 814.462,470.3 815.001,469.458 16.619,-41.225 				"/>
			</g>
			<g style="clip-path:url(#SVGID_00000008123171827595314490000014098247269669695384_);">
				<polygon style="fill:#FFFFFF;" points="-29.224,716.279 347.259,28.936 346.382,28.456 -29.224,714.198 				"/>
			</g>
			<g style="clip-path:url(#SVGID_00000008123171827595314490000014098247269669695384_);">
				<polygon style="fill:#FFFFFF;" points="477.24,819.861 754.791,-41.225 753.741,-41.225 476.19,819.861 				"/>
			</g>
			<g style="clip-path:url(#SVGID_00000008123171827595314490000014098247269669695384_);">
				<polygon style="fill:#FFFFFF;" points="-29.224,26.192 -29.224,27.493 831.862,743.362 831.862,742.061 				"/>
			</g>
			<g style="clip-path:url(#SVGID_00000008123171827595314490000014098247269669695384_);">
				<polygon style="fill:#FFFFFF;" points="-29.224,93.697 -29.224,94.771 831.862,433.298 831.862,432.225 				"/>
			</g>
			<g style="clip-path:url(#SVGID_00000008123171827595314490000014098247269669695384_);">
				<polygon style="fill:#FFFFFF;" points="-29.224,819.834 699.131,-41.225 697.821,-41.225 -29.224,818.285 				"/>
			</g>
			<g style="clip-path:url(#SVGID_00000008123171827595314490000014098247269669695384_);">
				<polygon style="fill:#FFFFFF;" points="-29.224,68.935 -29.224,70.405 665.803,819.861 667.166,819.861 				"/>
			</g>
			<g style="clip-path:url(#SVGID_00000008123171827595314490000014098247269669695384_);">
				<polygon style="fill:#FFFFFF;" points="409.836,819.861 387.275,-41.225 386.274,-41.225 408.836,819.861 				"/>
			</g>
			<g style="clip-path:url(#SVGID_00000008123171827595314490000014098247269669695384_);">
				<polygon style="fill:#FFFFFF;" points="327.612,819.861 560.17,-41.225 559.135,-41.225 326.576,819.861 				"/>
			</g>
			<g style="clip-path:url(#SVGID_00000008123171827595314490000014098247269669695384_);">
				<polygon style="fill:#FFFFFF;" points="-29.224,760.809 -29.224,761.831 254.361,819.861 259.353,819.861 				"/>
			</g>
			<g style="clip-path:url(#SVGID_00000008123171827595314490000014098247269669695384_);">
				<polygon style="fill:#FFFFFF;" points="-29.224,422.318 -29.224,423.747 358.769,819.861 360.169,819.861 				"/>
			</g>
			<g style="clip-path:url(#SVGID_00000008123171827595314490000014098247269669695384_);">
				<polygon style="fill:#FFFFFF;" points="-29.224,326.239 -29.224,327.799 381.567,819.861 382.869,819.861 				"/>
			</g>
			<g style="clip-path:url(#SVGID_00000008123171827595314490000014098247269669695384_);">
				<polygon style="fill:#FFFFFF;" points="82.389,819.861 397.282,504.968 396.575,504.261 80.975,819.861 				"/>
			</g>
			<g style="clip-path:url(#SVGID_00000008123171827595314490000014098247269669695384_);">
				<polygon style="fill:#FFFFFF;" points="-29.224,78.179 -29.224,79.464 831.862,774.839 831.862,773.554 				"/>
			</g>
			<g style="clip-path:url(#SVGID_00000008123171827595314490000014098247269669695384_);">
				<polygon style="fill:#FFFFFF;" points="159.289,819.861 831.862,-31.684 831.862,-33.298 158.015,819.861 				"/>
			</g>
			<g style="clip-path:url(#SVGID_00000008123171827595314490000014098247269669695384_);">
				<polygon style="fill:#FFFFFF;" points="-29.224,470.419 -29.224,471.419 831.862,479.793 831.862,478.793 				"/>
			</g>
			<g style="clip-path:url(#SVGID_00000008123171827595314490000014098247269669695384_);">
				<rect x="611.712" y="-41.225" style="fill:#FFFFFF;" width="1" height="861.086"/>
			</g>
			<g style="clip-path:url(#SVGID_00000008123171827595314490000014098247269669695384_);">
				<polygon style="fill:#FFFFFF;" points="470.095,819.861 630.567,-41.225 629.551,-41.225 469.078,819.861 				"/>
			</g>
			<g style="clip-path:url(#SVGID_00000008123171827595314490000014098247269669695384_);">
				<polygon style="fill:#FFFFFF;" points="373.329,819.861 831.862,273.007 831.862,271.452 372.024,819.861 				"/>
			</g>
			<g style="clip-path:url(#SVGID_00000008123171827595314490000014098247269669695384_);">
				<polygon style="fill:#FFFFFF;" points="628.946,819.861 338.896,-41.225 337.841,-41.225 627.892,819.861 				"/>
			</g>
			<g style="clip-path:url(#SVGID_00000008123171827595314490000014098247269669695384_);">
				<polygon style="fill:#FFFFFF;" points="107.941,819.861 150.764,8.678 149.765,8.625 106.94,819.861 				"/>
			</g>
			<g style="clip-path:url(#SVGID_00000008123171827595314490000014098247269669695384_);">
				<polygon style="fill:#FFFFFF;" points="350.803,819.861 17.228,-41.225 16.156,-41.225 349.731,819.861 				"/>
			</g>
			<g style="clip-path:url(#SVGID_00000008123171827595314490000014098247269669695384_);">
				<polygon style="fill:#FFFFFF;" points="-29.224,625.657 818.347,271.381 817.962,270.458 -29.224,624.574 				"/>
			</g>
			<g style="clip-path:url(#SVGID_00000008123171827595314490000014098247269669695384_);">
				<polygon style="fill:#FFFFFF;" points="-29.224,286.87 -29.224,287.947 831.862,633.24 831.862,632.163 				"/>
			</g>
			<g style="clip-path:url(#SVGID_00000008123171827595314490000014098247269669695384_);">
				<polygon style="fill:#FFFFFF;" points="286.64,819.861 206.708,-41.225 205.704,-41.225 285.635,819.861 				"/>
			</g>
			<g style="clip-path:url(#SVGID_00000008123171827595314490000014098247269669695384_);">
				<polygon style="fill:#FFFFFF;" points="-29.224,128.283 -29.224,129.293 831.862,11.986 831.862,10.976 				"/>
			</g>
			<g style="clip-path:url(#SVGID_00000008123171827595314490000014098247269669695384_);">
				<polygon style="fill:#FFFFFF;" points="799.123,819.861 127.421,-41.225 126.153,-41.225 797.854,819.861 				"/>
			</g>
			<g style="clip-path:url(#SVGID_00000008123171827595314490000014098247269669695384_);">
				<polygon style="fill:#FFFFFF;" points="509.374,819.861 765.442,-41.225 764.398,-41.225 508.33,819.861 				"/>
			</g>
			<g style="clip-path:url(#SVGID_00000008123171827595314490000014098247269669695384_);">
				<polygon style="fill:#FFFFFF;" points="-29.224,98.219 -29.224,99.227 831.862,-9.587 831.862,-10.595 				"/>
			</g>
			<g style="clip-path:url(#SVGID_00000008123171827595314490000014098247269669695384_);">
				<polygon style="fill:#FFFFFF;" points="321.352,819.861 597.75,-41.225 596.7,-41.225 320.302,819.861 				"/>
			</g>
			<g style="clip-path:url(#SVGID_00000008123171827595314490000014098247269669695384_);">
				<polygon style="fill:#FFFFFF;" points="-29.224,752.273 -29.224,753.322 831.862,480.264 831.862,479.215 				"/>
			</g>
			<g style="clip-path:url(#SVGID_00000008123171827595314490000014098247269669695384_);">
				<polygon style="fill:#FFFFFF;" points="-29.224,544.594 -29.224,545.665 831.862,218.867 831.862,217.797 				"/>
			</g>
			<g style="clip-path:url(#SVGID_00000008123171827595314490000014098247269669695384_);">
				<polygon style="fill:#FFFFFF;" points="-29.224,128.208 -29.224,129.396 831.862,681.274 831.862,680.087 				"/>
			</g>
			<g style="clip-path:url(#SVGID_00000008123171827595314490000014098247269669695384_);">
				<polygon style="fill:#FFFFFF;" points="400.605,819.861 626.701,-41.225 625.668,-41.225 399.572,819.861 				"/>
			</g>
			<g style="clip-path:url(#SVGID_00000008123171827595314490000014098247269669695384_);">
				<polygon style="fill:#FFFFFF;" points="164.783,819.861 299.045,-41.225 298.033,-41.225 163.771,819.861 				"/>
			</g>
			<g style="clip-path:url(#SVGID_00000008123171827595314490000014098247269669695384_);">
				<polygon style="fill:#FFFFFF;" points="-29.224,51.495 -29.224,52.769 831.862,732.072 831.862,730.798 				"/>
			</g>
			<g style="clip-path:url(#SVGID_00000008123171827595314490000014098247269669695384_);">
				
					<rect x="436.673" y="-190.089" transform="matrix(0.6636 -0.7481 0.7481 0.6636 -88.6958 433.0821)" style="fill:#FFFFFF;" width="1" height="1010.493"/>
			</g>
			<g style="clip-path:url(#SVGID_00000008123171827595314490000014098247269669695384_);">
				<polygon style="fill:#FFFFFF;" points="323.321,-41.225 825.323,402.577 825.985,401.827 324.831,-41.225 				"/>
			</g>
			<g style="clip-path:url(#SVGID_00000008123171827595314490000014098247269669695384_);">
				<polygon style="fill:#FFFFFF;" points="232.285,819.861 459.583,-41.225 458.549,-41.225 231.25,819.861 				"/>
			</g>
			<g style="clip-path:url(#SVGID_00000008123171827595314490000014098247269669695384_);">
				<polygon style="fill:#FFFFFF;" points="461.677,819.861 705.799,-41.225 704.759,-41.225 460.637,819.861 				"/>
			</g>
			<g style="clip-path:url(#SVGID_00000008123171827595314490000014098247269669695384_);">
				<polygon style="fill:#FFFFFF;" points="-29.224,323.81 -29.224,324.824 831.862,468.998 831.862,467.984 				"/>
			</g>
			<g style="clip-path:url(#SVGID_00000008123171827595314490000014098247269669695384_);">
				<polygon style="fill:#FFFFFF;" points="-29.224,-27.772 -29.224,-26.263 719.421,819.861 720.756,819.861 				"/>
			</g>
			<g style="clip-path:url(#SVGID_00000008123171827595314490000014098247269669695384_);">
				<polygon style="fill:#FFFFFF;" points="-29.224,747.36 588.23,-41.225 586.961,-41.225 -29.224,745.738 				"/>
			</g>
			<g style="clip-path:url(#SVGID_00000008123171827595314490000014098247269669695384_);">
				<polygon style="fill:#FFFFFF;" points="-29.224,143.978 -29.224,145.721 442.674,819.861 443.894,819.861 				"/>
			</g>
			<g style="clip-path:url(#SVGID_00000008123171827595314490000014098247269669695384_);">
				<polygon style="fill:#FFFFFF;" points="-29.224,605.978 597.279,-41.225 595.887,-41.225 -29.224,604.54 				"/>
			</g>
			<g style="clip-path:url(#SVGID_00000008123171827595314490000014098247269669695384_);">
				<polygon style="fill:#FFFFFF;" points="-29.224,279.752 -29.224,281.795 272.797,819.861 273.944,819.861 				"/>
			</g>
			<g style="clip-path:url(#SVGID_00000008123171827595314490000014098247269669695384_);">
				<polygon style="fill:#FFFFFF;" points="280.392,819.861 660.305,-41.225 659.212,-41.225 279.298,819.861 				"/>
			</g>
			<g style="clip-path:url(#SVGID_00000008123171827595314490000014098247269669695384_);">
				<polygon style="fill:#FFFFFF;" points="831.862,645.421 208.542,-41.225 207.192,-41.225 831.862,646.908 				"/>
			</g>
			<g style="clip-path:url(#SVGID_00000008123171827595314490000014098247269669695384_);">
				<polygon style="fill:#FFFFFF;" points="4.653,819.861 696.798,-41.225 695.515,-41.225 3.37,819.861 				"/>
			</g>
			<g style="clip-path:url(#SVGID_00000008123171827595314490000014098247269669695384_);">
				<polygon style="fill:#FFFFFF;" points="-29.224,301.818 152.602,-41.225 151.47,-41.225 -29.224,299.682 				"/>
			</g>
			<g style="clip-path:url(#SVGID_00000008123171827595314490000014098247269669695384_);">
				<polygon style="fill:#FFFFFF;" points="-29.224,183.852 -29.224,185.254 616.665,819.861 618.092,819.861 				"/>
			</g>
			<g style="clip-path:url(#SVGID_00000008123171827595314490000014098247269669695384_);">
				<polygon style="fill:#FFFFFF;" points="-29.224,442.046 -29.224,443.141 831.862,56.484 831.862,55.388 				"/>
			</g>
			<g style="clip-path:url(#SVGID_00000008123171827595314490000014098247269669695384_);">
				<polygon style="fill:#FFFFFF;" points="-29.224,72.202 -29.224,73.251 831.862,343.743 831.862,342.695 				"/>
			</g>
			<g style="clip-path:url(#SVGID_00000008123171827595314490000014098247269669695384_);">
				<polygon style="fill:#FFFFFF;" points="-29.224,227.541 -29.224,228.564 831.862,411.794 831.862,410.771 				"/>
			</g>
			<g style="clip-path:url(#SVGID_00000008123171827595314490000014098247269669695384_);">
				<polygon style="fill:#FFFFFF;" points="-29.224,-7.094 -29.224,-6.06 831.862,215.956 831.862,214.923 				"/>
			</g>
			<g style="clip-path:url(#SVGID_00000008123171827595314490000014098247269669695384_);">
				<polygon style="fill:#FFFFFF;" points="-29.224,636.459 -29.224,637.469 782.085,754.415 782.227,753.425 				"/>
			</g>
			<g style="clip-path:url(#SVGID_00000008123171827595314490000014098247269669695384_);">
				<polygon style="fill:#FFFFFF;" points="-29.224,425.257 -29.224,426.283 830.041,625.414 830.268,624.44 				"/>
			</g>
			<g style="clip-path:url(#SVGID_00000008123171827595314490000014098247269669695384_);">
				<polygon style="fill:#FFFFFF;" points="358.867,819.861 831.862,80.398 831.862,78.543 357.68,819.861 				"/>
			</g>
			<g style="clip-path:url(#SVGID_00000008123171827595314490000014098247269669695384_);">
				<polygon style="fill:#FFFFFF;" points="17.597,-41.225 782.871,377.943 783.352,377.066 19.679,-41.225 				"/>
			</g>
			<g style="clip-path:url(#SVGID_00000008123171827595314490000014098247269669695384_);">
				<polygon style="fill:#FFFFFF;" points="-29.224,500.05 -29.224,501.1 831.862,778.651 831.862,777.601 				"/>
			</g>
			<g style="clip-path:url(#SVGID_00000008123171827595314490000014098247269669695384_);">
				<polygon style="fill:#FFFFFF;" points="105.232,819.861 821.101,-41.225 819.8,-41.225 103.932,819.861 				"/>
			</g>
			<g style="clip-path:url(#SVGID_00000008123171827595314490000014098247269669695384_);">
				<polygon style="fill:#FFFFFF;" points="396.364,819.861 734.892,-41.225 733.817,-41.225 395.289,819.861 				"/>
			</g>
			<g style="clip-path:url(#SVGID_00000008123171827595314490000014098247269669695384_);">
				<polygon style="fill:#FFFFFF;" points="-29.224,-17.779 -29.224,-16.469 831.862,711.908 831.862,710.598 				"/>
			</g>
			<g style="clip-path:url(#SVGID_00000008123171827595314490000014098247269669695384_);">
				<polygon style="fill:#FFFFFF;" points="-29.224,717.482 788.901,-41.225 787.43,-41.225 -29.224,716.119 				"/>
			</g>
			<g style="clip-path:url(#SVGID_00000008123171827595314490000014098247269669695384_);">
				<polygon style="fill:#FFFFFF;" points="-29.224,440.075 -29.224,441.076 831.862,418.514 831.862,417.513 				"/>
			</g>
			<g style="clip-path:url(#SVGID_00000008123171827595314490000014098247269669695384_);">
				<polygon style="fill:#FFFFFF;" points="-29.224,351.543 -29.224,352.579 831.862,585.137 831.862,584.102 				"/>
			</g>
			<g style="clip-path:url(#SVGID_00000008123171827595314490000014098247269669695384_);">
				<polygon style="fill:#FFFFFF;" points="-29.224,393.487 59.732,-41.225 58.711,-41.225 -29.224,388.5 				"/>
			</g>
			<g style="clip-path:url(#SVGID_00000008123171827595314490000014098247269669695384_);">
				<polygon style="fill:#FFFFFF;" points="-29.224,411.59 433.068,-41.225 431.639,-41.225 -29.224,410.189 				"/>
			</g>
			<g style="clip-path:url(#SVGID_00000008123171827595314490000014098247269669695384_);">
				<polygon style="fill:#FFFFFF;" points="-29.224,431.227 536.699,-41.225 535.139,-41.225 -29.224,429.924 				"/>
			</g>
			<g style="clip-path:url(#SVGID_00000008123171827595314490000014098247269669695384_);">
				<polygon style="fill:#FFFFFF;" points="-29.224,90.489 -29.224,91.903 306.839,427.967 307.546,427.26 				"/>
			</g>
			<g style="clip-path:url(#SVGID_00000008123171827595314490000014098247269669695384_);">
				<polygon style="fill:#FFFFFF;" points="72.724,819.861 768.099,-41.225 766.814,-41.225 71.438,819.861 				"/>
			</g>
			<g style="clip-path:url(#SVGID_00000008123171827595314490000014098247269669695384_);">
				<polygon style="fill:#FFFFFF;" points="-29.224,171.979 -29.224,173.254 789.448,819.861 791.061,819.861 				"/>
			</g>
			<g style="clip-path:url(#SVGID_00000008123171827595314490000014098247269669695384_);">
				<polygon style="fill:#FFFFFF;" points="333.429,819.861 341.803,-41.225 340.803,-41.225 332.429,819.861 				"/>
			</g>
			<g style="clip-path:url(#SVGID_00000008123171827595314490000014098247269669695384_);">
				<rect x="-29.224" y="642.396" style="fill:#FFFFFF;" width="861.086" height="1"/>
			</g>
			<g style="clip-path:url(#SVGID_00000008123171827595314490000014098247269669695384_);">
				<polygon style="fill:#FFFFFF;" points="-29.224,495.817 -29.224,496.833 831.862,657.307 831.862,656.29 				"/>
			</g>
			<g style="clip-path:url(#SVGID_00000008123171827595314490000014098247269669695384_);">
				<polygon style="fill:#FFFFFF;" points="-29.224,384.957 -29.224,386.262 487.893,819.861 489.449,819.861 				"/>
			</g>
			<g style="clip-path:url(#SVGID_00000008123171827595314490000014098247269669695384_);">
				<polygon style="fill:#FFFFFF;" points="-29.224,665.707 -29.224,666.762 831.862,376.711 831.862,375.656 				"/>
			</g>
			<g style="clip-path:url(#SVGID_00000008123171827595314490000014098247269669695384_);">
				<polygon style="fill:#FFFFFF;" points="-29.224,136.506 -29.224,137.508 803.129,181.448 803.182,180.449 				"/>
			</g>
			<g style="clip-path:url(#SVGID_00000008123171827595314490000014098247269669695384_);">
				<polygon style="fill:#FFFFFF;" points="-29.224,388.617 -29.224,389.688 831.862,56.113 831.862,55.041 				"/>
			</g>
			<g style="clip-path:url(#SVGID_00000008123171827595314490000014098247269669695384_);">
				<polygon style="fill:#FFFFFF;" points="-29.224,248.765 -29.224,249.821 831.862,542.455 831.862,541.398 				"/>
			</g>
			<g style="clip-path:url(#SVGID_00000008123171827595314490000014098247269669695384_);">
				<polygon style="fill:#FFFFFF;" points="524.759,819.861 91.773,-41.225 90.654,-41.225 523.641,819.861 				"/>
			</g>
			<g style="clip-path:url(#SVGID_00000008123171827595314490000014098247269669695384_);">
				<polygon style="fill:#FFFFFF;" points="-29.224,486.655 356.433,-41.225 355.195,-41.225 -29.224,484.96 				"/>
			</g>
			<g style="clip-path:url(#SVGID_00000008123171827595314490000014098247269669695384_);">
				<polygon style="fill:#FFFFFF;" points="831.862,77.779 653.401,-41.225 651.598,-41.225 831.862,78.981 				"/>
			</g>
			<g style="clip-path:url(#SVGID_00000008123171827595314490000014098247269669695384_);">
				<polygon style="fill:#FFFFFF;" points="408.589,819.861 461.224,-41.225 460.222,-41.225 407.587,819.861 				"/>
			</g>
			<g style="clip-path:url(#SVGID_00000008123171827595314490000014098247269669695384_);">
				<polygon style="fill:#FFFFFF;" points="155.343,819.861 831.862,397.383 831.862,396.204 153.456,819.861 				"/>
			</g>
			<g style="clip-path:url(#SVGID_00000008123171827595314490000014098247269669695384_);">
				<polygon style="fill:#FFFFFF;" points="831.862,36.256 718.076,-41.225 716.299,-41.225 831.862,37.465 				"/>
			</g>
			<g style="clip-path:url(#SVGID_00000008123171827595314490000014098247269669695384_);">
				<polygon style="fill:#FFFFFF;" points="-29.224,636.181 -29.224,637.345 831.862,125.06 831.862,123.896 				"/>
			</g>
			<g style="clip-path:url(#SVGID_00000008123171827595314490000014098247269669695384_);">
				<polygon style="fill:#FFFFFF;" points="-29.224,465.234 -29.224,466.327 770.075,819.861 772.546,819.861 				"/>
			</g>
			<g style="clip-path:url(#SVGID_00000008123171827595314490000014098247269669695384_);">
				<polygon style="fill:#FFFFFF;" points="-29.224,146.137 -29.224,147.205 831.862,472.097 831.862,471.028 				"/>
			</g>
			<g style="clip-path:url(#SVGID_00000008123171827595314490000014098247269669695384_);">
				<polygon style="fill:#FFFFFF;" points="497.92,819.861 252.805,-41.225 251.765,-41.225 496.881,819.861 				"/>
			</g>
			<g style="clip-path:url(#SVGID_00000008123171827595314490000014098247269669695384_);">
				<polygon style="fill:#FFFFFF;" points="-29.224,759.989 -29.224,761.192 831.862,184.017 831.862,182.813 				"/>
			</g>
			<g style="clip-path:url(#SVGID_00000008123171827595314490000014098247269669695384_);">
				<polygon style="fill:#FFFFFF;" points="-29.224,332.592 421.309,-41.225 419.743,-41.225 -29.224,331.293 				"/>
			</g>
			<g style="clip-path:url(#SVGID_00000008123171827595314490000014098247269669695384_);">
				<polygon style="fill:#FFFFFF;" points="461.343,819.861 305.229,-41.225 304.213,-41.225 460.326,819.861 				"/>
			</g>
			<g style="clip-path:url(#SVGID_00000008123171827595314490000014098247269669695384_);">
				<polygon style="fill:#FFFFFF;" points="546.84,819.861 441.528,-41.225 440.521,-41.225 545.833,819.861 				"/>
			</g>
			<g style="clip-path:url(#SVGID_00000008123171827595314490000014098247269669695384_);">
				<polygon style="fill:#FFFFFF;" points="713.642,-41.225 807.91,719.184 808.902,719.06 714.65,-41.225 				"/>
			</g>
			<g style="clip-path:url(#SVGID_00000008123171827595314490000014098247269669695384_);">
				<polygon style="fill:#FFFFFF;" points="-29.224,484.474 757.28,-41.225 755.481,-41.225 -29.224,483.271 				"/>
			</g>
			<g style="clip-path:url(#SVGID_00000008123171827595314490000014098247269669695384_);">
				<polygon style="fill:#FFFFFF;" points="33.286,819.861 831.862,306.843 831.862,305.655 31.435,819.861 				"/>
			</g>
			<g style="clip-path:url(#SVGID_00000008123171827595314490000014098247269669695384_);">
				<polygon style="fill:#FFFFFF;" points="773.618,819.861 75.313,-41.225 74.025,-41.225 772.33,819.861 				"/>
			</g>
			<g style="clip-path:url(#SVGID_00000008123171827595314490000014098247269669695384_);">
				<rect x="304.624" y="-41.225" style="fill:#FFFFFF;" width="1" height="861.086"/>
			</g>
			<g style="clip-path:url(#SVGID_00000008123171827595314490000014098247269669695384_);">
				<polygon style="fill:#FFFFFF;" points="-29.224,211.151 -29.224,212.168 831.862,52.808 831.862,51.791 				"/>
			</g>
			<g style="clip-path:url(#SVGID_00000008123171827595314490000014098247269669695384_);">
				<polygon style="fill:#FFFFFF;" points="11.093,819.861 108.629,-41.225 107.622,-41.225 10.086,819.861 				"/>
			</g>
			<g style="clip-path:url(#SVGID_00000008123171827595314490000014098247269669695384_);">
				<polygon style="fill:#FFFFFF;" points="-29.224,113.497 -29.224,114.5 831.862,47.083 831.862,46.079 				"/>
			</g>
			<g style="clip-path:url(#SVGID_00000008123171827595314490000014098247269669695384_);">
				<polygon style="fill:#FFFFFF;" points="-29.224,589.674 -29.224,590.775 831.862,194.02 831.862,192.919 				"/>
			</g>
			<g style="clip-path:url(#SVGID_00000008123171827595314490000014098247269669695384_);">
				<polygon style="fill:#FFFFFF;" points="584.947,819.861 573.253,-41.225 572.253,-41.225 583.947,819.861 				"/>
			</g>
			<g style="clip-path:url(#SVGID_00000008123171827595314490000014098247269669695384_);">
				<polygon style="fill:#FFFFFF;" points="-29.224,319.335 -29.224,320.35 831.862,172.34 831.862,171.325 				"/>
			</g>
			<g style="clip-path:url(#SVGID_00000008123171827595314490000014098247269669695384_);">
				<polygon style="fill:#FFFFFF;" points="186.967,819.861 125.993,-41.225 124.99,-41.225 185.964,819.861 				"/>
			</g>
			<g style="clip-path:url(#SVGID_00000008123171827595314490000014098247269669695384_);">
				<polygon style="fill:#FFFFFF;" points="-29.224,-5.726 -29.224,-4.678 831.862,263.07 831.862,262.022 				"/>
			</g>
			<g style="clip-path:url(#SVGID_00000008123171827595314490000014098247269669695384_);">
				<polygon style="fill:#FFFFFF;" points="831.862,597.962 446.18,-41.225 445.012,-41.225 831.862,599.897 				"/>
			</g>
			<g style="clip-path:url(#SVGID_00000008123171827595314490000014098247269669695384_);">
				<polygon style="fill:#FFFFFF;" points="831.862,767.966 232.374,-41.225 231.13,-41.225 831.862,769.646 				"/>
			</g>
			<g style="clip-path:url(#SVGID_00000008123171827595314490000014098247269669695384_);">
				<polygon style="fill:#FFFFFF;" points="831.862,292.83 605.794,-41.225 604.587,-41.225 831.862,294.614 				"/>
			</g>
			<g style="clip-path:url(#SVGID_00000008123171827595314490000014098247269669695384_);">
				<polygon style="fill:#FFFFFF;" points="-29.224,505.899 -29.224,507.443 236.132,819.861 237.443,819.861 				"/>
			</g>
			<g style="clip-path:url(#SVGID_00000008123171827595314490000014098247269669695384_);">
				<polygon style="fill:#FFFFFF;" points="-29.224,69.605 -29.224,71.328 504.659,819.861 505.887,819.861 				"/>
			</g>
			<g style="clip-path:url(#SVGID_00000008123171827595314490000014098247269669695384_);">
				<polygon style="fill:#FFFFFF;" points="-29.224,709.874 -29.224,710.913 831.862,464.965 831.862,463.924 				"/>
			</g>
			<g style="clip-path:url(#SVGID_00000008123171827595314490000014098247269669695384_);">
				<polygon style="fill:#FFFFFF;" points="540.236,-41.225 817.605,710.4 818.543,710.055 541.301,-41.225 				"/>
			</g>
			<g style="clip-path:url(#SVGID_00000008123171827595314490000014098247269669695384_);">
				<polygon style="fill:#FFFFFF;" points="-29.224,292.305 -29.224,294.265 282.606,819.861 283.768,819.861 				"/>
			</g>
			<g style="clip-path:url(#SVGID_00000008123171827595314490000014098247269669695384_);">
				<polygon style="fill:#FFFFFF;" points="-29.224,437.151 -29.224,438.163 831.862,304.753 831.862,303.741 				"/>
			</g>
			<g style="clip-path:url(#SVGID_00000008123171827595314490000014098247269669695384_);">
				<polygon style="fill:#FFFFFF;" points="-29.224,754.388 -29.224,755.511 831.862,315.178 831.862,314.055 				"/>
			</g>
			<g style="clip-path:url(#SVGID_00000008123171827595314490000014098247269669695384_);">
				<polygon style="fill:#FFFFFF;" points="492.263,819.861 366.362,-41.225 365.352,-41.225 491.252,819.861 				"/>
			</g>
			<g style="clip-path:url(#SVGID_00000008123171827595314490000014098247269669695384_);">
				<polygon style="fill:#FFFFFF;" points="-29.224,243.106 -29.224,244.106 831.862,223.247 831.862,222.247 				"/>
			</g>
			<g style="clip-path:url(#SVGID_00000008123171827595314490000014098247269669695384_);">
				<polygon style="fill:#FFFFFF;" points="-29.224,46.22 -29.224,47.525 831.862,768.872 831.862,767.568 				"/>
			</g>
			<g style="clip-path:url(#SVGID_00000008123171827595314490000014098247269669695384_);">
				<polygon style="fill:#FFFFFF;" points="579.941,819.861 11.47,-41.225 10.272,-41.225 578.743,819.861 				"/>
			</g>
			<g style="clip-path:url(#SVGID_00000008123171827595314490000014098247269669695384_);">
				<polygon style="fill:#FFFFFF;" points="216.096,-41.225 234.814,260.864 235.812,260.803 217.098,-41.225 				"/>
			</g>
			<g style="clip-path:url(#SVGID_00000008123171827595314490000014098247269669695384_);">
				<polygon style="fill:#FFFFFF;" points="-29.224,396.26 -29.224,397.274 831.862,251.28 831.862,250.266 				"/>
			</g>
			<g style="clip-path:url(#SVGID_00000008123171827595314490000014098247269669695384_);">
				<polygon style="fill:#FFFFFF;" points="324.762,819.861 169.16,-41.225 168.144,-41.225 323.745,819.861 				"/>
			</g>
			<g style="clip-path:url(#SVGID_00000008123171827595314490000014098247269669695384_);">
				<polygon style="fill:#FFFFFF;" points="-29.224,617.674 564.292,-41.225 562.947,-41.225 -29.224,616.18 				"/>
			</g>
			<g style="clip-path:url(#SVGID_00000008123171827595314490000014098247269669695384_);">
				<polygon style="fill:#FFFFFF;" points="-29.224,432.559 -29.224,433.893 407.734,819.861 409.245,819.861 				"/>
			</g>
			<g style="clip-path:url(#SVGID_00000008123171827595314490000014098247269669695384_);">
				<polygon style="fill:#FFFFFF;" points="-29.224,217.991 -29.224,219.616 439.554,819.861 440.823,819.861 				"/>
			</g>
			<g style="clip-path:url(#SVGID_00000008123171827595314490000014098247269669695384_);">
				<polygon style="fill:#FFFFFF;" points="-29.224,247.258 -29.224,253.972 56.016,819.861 57.027,819.861 				"/>
			</g>
			<g style="clip-path:url(#SVGID_00000008123171827595314490000014098247269669695384_);">
				<polygon style="fill:#FFFFFF;" points="-29.224,331.025 -29.224,332.11 831.862,694.761 831.862,693.676 				"/>
			</g>
			<g style="clip-path:url(#SVGID_00000008123171827595314490000014098247269669695384_);">
				<polygon style="fill:#FFFFFF;" points="831.862,306.071 478.158,-41.225 476.731,-41.225 831.862,307.472 				"/>
			</g>
			<g style="clip-path:url(#SVGID_00000008123171827595314490000014098247269669695384_);">
				<polygon style="fill:#FFFFFF;" points="831.862,243.525 61.197,-41.225 58.311,-41.225 831.862,244.591 				"/>
			</g>
			<g style="clip-path:url(#SVGID_00000008123171827595314490000014098247269669695384_);">
				<polygon style="fill:#FFFFFF;" points="619.792,819.861 831.862,201.841 831.862,198.762 618.735,819.861 				"/>
			</g>
			<g style="clip-path:url(#SVGID_00000008123171827595314490000014098247269669695384_);">
				<polygon style="fill:#FFFFFF;" points="606.241,819.861 813.306,109.373 812.345,109.093 605.198,819.861 				"/>
			</g>
			<g style="clip-path:url(#SVGID_00000008123171827595314490000014098247269669695384_);">
				<polygon style="fill:#FFFFFF;" points="610.485,819.861 824.642,344.222 823.729,343.811 609.388,819.861 				"/>
			</g>
			<g style="clip-path:url(#SVGID_00000008123171827595314490000014098247269669695384_);">
				<polygon style="fill:#FFFFFF;" points="630.94,819.861 821.546,296.352 820.606,296.01 629.876,819.861 				"/>
			</g>
			<g style="clip-path:url(#SVGID_00000008123171827595314490000014098247269669695384_);">
				<polygon style="fill:#FFFFFF;" points="542.321,819.861 813.463,156.173 812.537,155.795 541.24,819.861 				"/>
			</g>
			<g style="clip-path:url(#SVGID_00000008123171827595314490000014098247269669695384_);">
				
					<rect x="88.312" y="409" transform="matrix(0.5333 -0.8459 0.8459 0.5333 -79.2073 675.4252)" style="fill:#FFFFFF;" width="968.476" height="1"/>
			</g>
			<g style="clip-path:url(#SVGID_00000008123171827595314490000014098247269669695384_);">
				<polygon style="fill:#FFFFFF;" points="-29.224,481.641 -29.224,483.122 279.173,819.861 280.529,819.861 				"/>
			</g>
			<g style="clip-path:url(#SVGID_00000008123171827595314490000014098247269669695384_);">
				<polygon style="fill:#FFFFFF;" points="-29.224,563.786 -29.224,565.321 189.166,819.861 190.483,819.861 				"/>
			</g>
			<g style="clip-path:url(#SVGID_00000008123171827595314490000014098247269669695384_);">
				<polygon style="fill:#FFFFFF;" points="-29.224,622.664 -29.224,624.215 135.823,819.861 137.131,819.861 				"/>
			</g>
			<g style="clip-path:url(#SVGID_00000008123171827595314490000014098247269669695384_);">
				<polygon style="fill:#FFFFFF;" points="-29.214,681.866 -29.224,681.875 -29.224,683.322 97.959,819.861 99.325,819.861 				"/>
			</g>
			<g style="clip-path:url(#SVGID_00000008123171827595314490000014098247269669695384_);">
				
					<rect x="404.847" y="363.762" transform="matrix(0.0279 -0.9996 0.9996 0.0279 -380.1184 1158.0536)" style="fill:#FFFFFF;" width="1" height="821.401"/>
			</g>
			<g style="clip-path:url(#SVGID_00000008123171827595314490000014098247269669695384_);">
				
					<rect x="-63.484" y="33.117" transform="matrix(0.5359 -0.8443 0.8443 0.5359 -19.5546 31.6628)" style="fill:#FFFFFF;" width="165.01" height="1"/>
			</g>
			<g style="clip-path:url(#SVGID_00000008123171827595314490000014098247269669695384_);">
				
					<rect x="-111.708" y="104.083" transform="matrix(0.4646 -0.8855 0.8855 0.4646 -64.9241 101.7795)" style="fill:#FFFFFF;" width="326.839" height="1"/>
			</g>
			<g style="clip-path:url(#SVGID_00000008123171827595314490000014098247269669695384_);">
				<polygon style="fill:#FFFFFF;" points="-29.224,290.221 172.685,-20.956 171.846,-21.5 -29.224,288.384 				"/>
			</g>
			<g style="clip-path:url(#SVGID_00000008123171827595314490000014098247269669695384_);">
				<polygon style="fill:#FFFFFF;" points="-29.224,317.264 256.852,-26.211 256.083,-26.851 -29.224,315.702 				"/>
			</g>
			<g style="clip-path:url(#SVGID_00000008123171827595314490000014098247269669695384_);">
				<polygon style="fill:#FFFFFF;" points="-29.224,368.848 319.534,-29.171 318.782,-29.83 -29.224,367.33 				"/>
			</g>
			<g style="clip-path:url(#SVGID_00000008123171827595314490000014098247269669695384_);">
				<polygon style="fill:#FFFFFF;" points="-29.224,30.121 174.12,-35.567 173.813,-36.519 -29.224,29.07 				"/>
			</g>
			<g style="clip-path:url(#SVGID_00000008123171827595314490000014098247269669695384_);">
				<polygon style="fill:#FFFFFF;" points="-29.224,119.408 207.786,-41.209 207.775,-41.225 206.027,-41.225 -29.224,118.2 				"/>
			</g>
			<g style="clip-path:url(#SVGID_00000008123171827595314490000014098247269669695384_);">
				<polygon style="fill:#FFFFFF;" points="-29.224,89.34 165.167,-41.225 163.373,-41.225 -29.224,88.136 				"/>
			</g>
			<g style="clip-path:url(#SVGID_00000008123171827595314490000014098247269669695384_);">
				<polygon style="fill:#FFFFFF;" points="-29.224,37.964 469.852,-19.969 469.737,-20.962 -29.224,36.957 				"/>
			</g>
			<g style="clip-path:url(#SVGID_00000008123171827595314490000014098247269669695384_);">
				<polygon style="fill:#FFFFFF;" points="831.862,127.943 -21.52,-41.225 -26.663,-41.225 831.862,128.962 				"/>
			</g>
			<g style="clip-path:url(#SVGID_00000008123171827595314490000014098247269669695384_);">
				<polygon style="fill:#FFFFFF;" points="-29.224,69.92 821.025,26.288 820.975,25.289 -29.224,68.919 				"/>
			</g>
			<g style="clip-path:url(#SVGID_00000008123171827595314490000014098247269669695384_);">
				<polygon style="fill:#FFFFFF;" points="-29.224,35.917 261.471,-41.225 257.572,-41.225 -29.224,34.882 				"/>
			</g>
			<g style="clip-path:url(#SVGID_00000008123171827595314490000014098247269669695384_);">
				<polygon style="fill:#FFFFFF;" points="-29.224,363.389 471.23,-29.107 470.613,-29.894 -29.224,362.118 				"/>
			</g>
			<g style="clip-path:url(#SVGID_00000008123171827595314490000014098247269669695384_);">
				<polygon style="fill:#FFFFFF;" points="-29.224,313.32 304.425,-38.585 303.7,-39.273 -29.224,311.866 				"/>
			</g>
			<g style="clip-path:url(#SVGID_00000008123171827595314490000014098247269669695384_);">
				<polygon style="fill:#FFFFFF;" points="-29.224,275.527 216.982,-41.063 216.774,-41.225 215.842,-41.225 -29.224,273.898 				
					"/>
			</g>
			<g style="clip-path:url(#SVGID_00000008123171827595314490000014098247269669695384_);">
				<polygon style="fill:#FFFFFF;" points="-29.224,129.687 98.779,-26.632 98.005,-27.266 -29.224,128.109 				"/>
			</g>
			<g style="clip-path:url(#SVGID_00000008123171827595314490000014098247269669695384_);">
				<polygon style="fill:#FFFFFF;" points="831.862,440.078 579.114,-41.225 577.985,-41.225 831.862,442.228 				"/>
			</g>
			<g style="clip-path:url(#SVGID_00000008123171827595314490000014098247269669695384_);">
				
					<rect x="717.595" y="-53.317" transform="matrix(0.9148 -0.4038 0.4038 0.9148 0.7853 302.7257)" style="fill:#FFFFFF;" width="0.999" height="405.636"/>
			</g>
			<g style="clip-path:url(#SVGID_00000008123171827595314490000014098247269669695384_);">
				<polygon style="fill:#FFFFFF;" points="699.331,-41.225 799.535,213.503 800.465,213.137 700.405,-41.225 				"/>
			</g>
			<g style="clip-path:url(#SVGID_00000008123171827595314490000014098247269669695384_);">
				<polygon style="fill:#FFFFFF;" points="746.035,-41.225 799.512,197.356 800.488,197.138 747.061,-41.225 				"/>
			</g>
			<g style="clip-path:url(#SVGID_00000008123171827595314490000014098247269669695384_);">
				
					<rect x="793.993" y="-36.887" transform="matrix(0.99 -0.141 0.141 0.99 1.2256 112.5082)" style="fill:#FFFFFF;" width="1" height="168.987"/>
			</g>
			<g style="clip-path:url(#SVGID_00000008123171827595314490000014098247269669695384_);">
				
					<rect x="700.02" y="-58.463" transform="matrix(0.8656 -0.5007 0.5007 0.8656 5.5445 374.5526)" style="fill:#FFFFFF;" width="1" height="470.82"/>
			</g>
			<g style="clip-path:url(#SVGID_00000008123171827595314490000014098247269669695384_);">
				
					<rect x="648.418" y="-74.295" transform="matrix(0.7954 -0.6061 0.6061 0.7954 14.4777 433.2235)" style="fill:#FFFFFF;" width="1" height="538.925"/>
			</g>
			<g style="clip-path:url(#SVGID_00000008123171827595314490000014098247269669695384_);">
				<polygon style="fill:#FFFFFF;" points="-29.224,753 434.372,-35.79 433.511,-36.296 -29.224,751.026 				"/>
			</g>
			<g style="clip-path:url(#SVGID_00000008123171827595314490000014098247269669695384_);">
				<polygon style="fill:#FFFFFF;" points="-29.224,591.653 256.476,-40.09 255.564,-40.502 -29.224,589.226 				"/>
			</g>
			<g style="clip-path:url(#SVGID_00000008123171827595314490000014098247269669695384_);">
				<polygon style="fill:#FFFFFF;" points="-29.224,681.009 322.135,-12.959 321.242,-13.411 -29.224,678.795 				"/>
			</g>
			<g style="clip-path:url(#SVGID_00000008123171827595314490000014098247269669695384_);">
				
					<rect x="-251.294" y="245.375" transform="matrix(0.1993 -0.9799 0.9799 0.1993 -211.7887 232.5484)" style="fill:#FFFFFF;" width="575.407" height="1"/>
			</g>
		</g>
	</g>
</g>
<g id="DESIGNED_BY_FREEPIK">
	<g>
		<path style="fill:#9B9B9A;" d="M285.677,779.958v-0.257c-0.349,0.399-0.692,0.724-1.031,0.973
			c-0.338,0.251-0.706,0.441-1.102,0.57c-0.396,0.132-0.827,0.195-1.296,0.195c-0.621,0-1.196-0.131-1.725-0.393
			c-0.528-0.263-0.986-0.639-1.372-1.126c-0.387-0.487-0.68-1.06-0.879-1.719c-0.199-0.659-0.299-1.371-0.299-2.137
			c0-1.621,0.396-2.886,1.188-3.791c0.792-0.904,1.833-1.357,3.125-1.357c0.747,0,1.377,0.129,1.89,0.384
			c0.513,0.257,1.013,0.652,1.501,1.183v-3.827c0-0.532,0.105-0.934,0.318-1.206c0.211-0.273,0.514-0.408,0.907-0.408
			c0.393,0,0.694,0.125,0.907,0.375c0.212,0.251,0.318,0.618,0.318,1.106v11.435c0,0.494-0.113,0.864-0.342,1.111
			c-0.228,0.246-0.522,0.37-0.883,0.37c-0.354,0-0.647-0.128-0.879-0.384C285.792,780.798,285.677,780.432,285.677,779.958z
			 M280.576,776.149c0,0.703,0.109,1.301,0.328,1.795c0.219,0.494,0.518,0.866,0.897,1.115c0.38,0.251,0.795,0.377,1.244,0.377
			c0.456,0,0.872-0.119,1.249-0.357c0.377-0.236,0.677-0.602,0.902-1.091c0.225-0.491,0.337-1.105,0.337-1.839
			c0-0.69-0.112-1.284-0.337-1.782c-0.225-0.496-0.528-0.876-0.912-1.14c-0.383-0.262-0.803-0.393-1.258-0.393
			c-0.475,0-0.899,0.135-1.273,0.403c-0.374,0.269-0.663,0.654-0.869,1.158C280.678,774.9,280.576,775.484,280.576,776.149z"/>
		<path style="fill:#9B9B9A;" d="M297.11,776.806h-5.071c0.006,0.588,0.125,1.107,0.356,1.557c0.23,0.45,0.538,0.789,0.921,1.017
			c0.383,0.229,0.806,0.341,1.268,0.341c0.31,0,0.593-0.035,0.85-0.108c0.257-0.074,0.505-0.186,0.746-0.343
			c0.241-0.154,0.462-0.321,0.664-0.499c0.202-0.178,0.464-0.419,0.788-0.723c0.133-0.113,0.323-0.171,0.571-0.171
			c0.266,0,0.48,0.074,0.645,0.22c0.165,0.147,0.248,0.351,0.248,0.617c0,0.234-0.093,0.507-0.275,0.821
			c-0.185,0.313-0.462,0.614-0.832,0.902c-0.372,0.288-0.836,0.526-1.397,0.717c-0.56,0.191-1.204,0.285-1.933,0.285
			c-1.664,0-2.96-0.476-3.884-1.425c-0.924-0.949-1.386-2.238-1.386-3.865c0-0.766,0.113-1.478,0.341-2.132
			c0.229-0.656,0.561-1.218,0.997-1.687c0.437-0.469,0.975-0.827,1.615-1.078c0.639-0.25,1.349-0.374,2.128-0.374
			c1.013,0,1.882,0.212,2.606,0.641c0.726,0.427,1.269,0.98,1.63,1.656c0.36,0.678,0.541,1.369,0.541,2.07
			c0,0.653-0.187,1.075-0.56,1.27C298.315,776.708,297.788,776.806,297.11,776.806z M292.039,775.333h4.702
			c-0.063-0.887-0.303-1.551-0.717-1.99c-0.415-0.44-0.96-0.66-1.638-0.66c-0.646,0-1.177,0.223-1.591,0.669
			C292.379,773.798,292.128,774.459,292.039,775.333z"/>
		<path style="fill:#9B9B9A;" d="M308.925,778.048c0,0.716-0.173,1.329-0.522,1.839c-0.348,0.51-0.862,0.896-1.543,1.159
			c-0.68,0.263-1.508,0.393-2.483,0.393c-0.931,0-1.729-0.143-2.394-0.428c-0.664-0.284-1.156-0.642-1.472-1.067
			c-0.317-0.429-0.475-0.856-0.475-1.288c0-0.285,0.101-0.528,0.304-0.73c0.202-0.202,0.459-0.304,0.77-0.304
			c0.271,0,0.48,0.066,0.626,0.199c0.146,0.133,0.286,0.32,0.418,0.56c0.266,0.464,0.585,0.807,0.956,1.036
			c0.37,0.227,0.875,0.342,1.515,0.342c0.519,0,0.945-0.116,1.277-0.346c0.332-0.232,0.498-0.496,0.498-0.794
			c0-0.456-0.172-0.787-0.518-0.996c-0.345-0.209-0.914-0.409-1.705-0.6c-0.893-0.221-1.619-0.454-2.18-0.698
			c-0.561-0.242-1.008-0.565-1.344-0.963c-0.335-0.399-0.503-0.891-0.503-1.473c0-0.518,0.155-1.01,0.465-1.472
			c0.31-0.461,0.768-0.83,1.374-1.106c0.603-0.276,1.333-0.414,2.188-0.414c0.671,0,1.275,0.069,1.809,0.21
			c0.536,0.138,0.983,0.326,1.34,0.561c0.358,0.233,0.63,0.493,0.816,0.777c0.186,0.285,0.28,0.564,0.28,0.837
			c0,0.297-0.1,0.541-0.298,0.732c-0.199,0.188-0.482,0.285-0.85,0.285c-0.266,0-0.492-0.076-0.679-0.229
			c-0.187-0.151-0.4-0.379-0.641-0.683c-0.196-0.253-0.426-0.456-0.693-0.608c-0.266-0.152-0.627-0.228-1.083-0.228
			c-0.469,0-0.858,0.099-1.168,0.3c-0.31,0.198-0.465,0.446-0.465,0.744c0,0.273,0.114,0.496,0.341,0.67
			c0.228,0.175,0.535,0.319,0.922,0.433c0.386,0.113,0.917,0.252,1.596,0.417c0.803,0.197,1.46,0.432,1.97,0.703
			c0.509,0.271,0.896,0.594,1.16,0.965C308.794,777.151,308.925,777.573,308.925,778.048z"/>
		<path style="fill:#9B9B9A;" d="M311.574,769.691c-0.361,0-0.669-0.111-0.926-0.333c-0.256-0.221-0.385-0.534-0.385-0.941
			c0-0.368,0.131-0.669,0.394-0.907c0.263-0.238,0.569-0.356,0.916-0.356c0.336,0,0.633,0.108,0.893,0.323
			c0.26,0.216,0.39,0.528,0.39,0.94c0,0.399-0.127,0.711-0.381,0.936C312.223,769.578,311.922,769.691,311.574,769.691z
			 M312.857,772.369v7.493c0,0.52-0.124,0.913-0.371,1.179c-0.247,0.266-0.56,0.398-0.94,0.398s-0.689-0.136-0.926-0.408
			c-0.238-0.273-0.356-0.662-0.356-1.169v-7.418c0-0.512,0.118-0.898,0.356-1.158c0.237-0.26,0.546-0.39,0.926-0.39
			s0.693,0.13,0.94,0.39C312.733,771.546,312.857,771.907,312.857,772.369z"/>
		<path style="fill:#9B9B9A;" d="M324.215,772.797v7.531c0,0.861-0.093,1.603-0.277,2.224c-0.182,0.619-0.477,1.133-0.883,1.538
			c-0.405,0.404-0.935,0.706-1.59,0.901c-0.655,0.197-1.471,0.295-2.446,0.295c-0.893,0-1.69-0.125-2.393-0.375
			c-0.702-0.251-1.243-0.573-1.624-0.969c-0.379-0.396-0.57-0.803-0.57-1.221c0-0.316,0.108-0.575,0.324-0.773
			c0.215-0.2,0.475-0.3,0.778-0.3c0.38,0,0.712,0.168,0.997,0.503c0.139,0.171,0.283,0.345,0.432,0.519
			c0.149,0.175,0.314,0.323,0.494,0.447c0.181,0.122,0.397,0.214,0.65,0.274c0.253,0.059,0.545,0.09,0.874,0.09
			c0.671,0,1.192-0.093,1.563-0.28c0.371-0.186,0.63-0.448,0.779-0.784c0.149-0.334,0.236-0.693,0.261-1.077
			c0.025-0.384,0.044-0.999,0.057-1.849c-0.399,0.559-0.859,0.984-1.382,1.274c-0.522,0.291-1.144,0.437-1.866,0.437
			c-0.868,0-1.625-0.222-2.275-0.665c-0.649-0.443-1.148-1.064-1.495-1.861c-0.349-0.799-0.522-1.719-0.522-2.764
			c0-0.779,0.105-1.482,0.317-2.109c0.213-0.628,0.515-1.156,0.907-1.587c0.393-0.431,0.845-0.755,1.358-0.974
			c0.513-0.218,1.076-0.327,1.691-0.327c0.734,0,1.371,0.141,1.909,0.422c0.538,0.283,1.039,0.725,1.501,1.326v-0.352
			c0-0.449,0.11-0.797,0.332-1.045c0.222-0.246,0.507-0.37,0.855-0.37c0.5,0,0.832,0.164,0.997,0.489
			C324.132,771.712,324.215,772.182,324.215,772.797z M316.702,776.083c0,1.051,0.229,1.846,0.688,2.384
			c0.459,0.539,1.053,0.808,1.781,0.808c0.43,0,0.837-0.116,1.22-0.347c0.384-0.232,0.695-0.58,0.936-1.045
			c0.24-0.466,0.361-1.03,0.361-1.695c0-1.057-0.233-1.881-0.698-2.469c-0.466-0.589-1.078-0.884-1.838-0.884
			c-0.741,0-1.334,0.282-1.78,0.846C316.925,774.243,316.702,775.045,316.702,776.083z"/>
		<path style="fill:#9B9B9A;" d="M328.336,772.331v0.314c0.455-0.602,0.954-1.043,1.496-1.325c0.542-0.281,1.163-0.423,1.866-0.423
			c0.684,0,1.295,0.149,1.834,0.447c0.538,0.298,0.941,0.719,1.206,1.262c0.172,0.317,0.282,0.66,0.332,1.026
			c0.051,0.368,0.077,0.836,0.077,1.406v4.824c0,0.52-0.119,0.913-0.357,1.179c-0.237,0.266-0.546,0.398-0.926,0.398
			c-0.387,0-0.7-0.136-0.941-0.408c-0.241-0.273-0.361-0.662-0.361-1.169v-4.321c0-0.854-0.119-1.509-0.357-1.961
			c-0.238-0.452-0.71-0.68-1.42-0.68c-0.461,0-0.883,0.138-1.263,0.413c-0.38,0.276-0.659,0.655-0.836,1.136
			c-0.126,0.387-0.19,1.107-0.19,2.165v3.248c0,0.526-0.123,0.921-0.365,1.184c-0.243,0.263-0.559,0.393-0.945,0.393
			c-0.375,0-0.681-0.136-0.922-0.408c-0.24-0.273-0.361-0.662-0.361-1.169v-7.493c0-0.494,0.107-0.863,0.323-1.107
			c0.215-0.243,0.51-0.365,0.883-0.365c0.229,0,0.435,0.054,0.619,0.162c0.183,0.109,0.331,0.27,0.441,0.484
			C328.281,771.758,328.336,772.021,328.336,772.331z"/>
		<path style="fill:#9B9B9A;" d="M344.111,776.806h-5.071c0.007,0.588,0.125,1.107,0.357,1.557c0.231,0.45,0.538,0.789,0.921,1.017
			c0.382,0.229,0.805,0.341,1.267,0.341c0.31,0,0.594-0.035,0.851-0.108c0.255-0.074,0.504-0.186,0.746-0.343
			c0.24-0.154,0.461-0.321,0.665-0.499c0.202-0.178,0.464-0.419,0.788-0.723c0.133-0.113,0.323-0.171,0.57-0.171
			c0.266,0,0.482,0.074,0.646,0.22c0.165,0.147,0.247,0.351,0.247,0.617c0,0.234-0.091,0.507-0.275,0.821
			c-0.184,0.313-0.461,0.614-0.831,0.902c-0.371,0.288-0.835,0.526-1.396,0.717c-0.561,0.191-1.205,0.285-1.933,0.285
			c-1.665,0-2.96-0.476-3.885-1.425c-0.923-0.949-1.386-2.238-1.386-3.865c0-0.766,0.114-1.478,0.342-2.132
			c0.228-0.656,0.561-1.218,0.998-1.687c0.436-0.469,0.975-0.827,1.614-1.078c0.639-0.25,1.349-0.374,2.128-0.374
			c1.013,0,1.881,0.212,2.606,0.641c0.726,0.427,1.269,0.98,1.63,1.656c0.36,0.678,0.542,1.369,0.542,2.07
			c0,0.653-0.187,1.075-0.561,1.27C345.315,776.708,344.789,776.806,344.111,776.806z M339.039,775.333h4.701
			c-0.063-0.887-0.302-1.551-0.717-1.99c-0.415-0.44-0.961-0.66-1.638-0.66c-0.646,0-1.177,0.223-1.592,0.669
			C339.379,773.798,339.128,774.459,339.039,775.333z"/>
		<path style="fill:#9B9B9A;" d="M354.68,779.958v-0.257c-0.348,0.399-0.691,0.724-1.03,0.973c-0.339,0.251-0.706,0.441-1.102,0.57
			c-0.395,0.132-0.828,0.195-1.296,0.195c-0.622,0-1.196-0.131-1.724-0.393c-0.529-0.263-0.986-0.639-1.373-1.126
			c-0.387-0.487-0.679-1.06-0.878-1.719c-0.2-0.659-0.299-1.371-0.299-2.137c0-1.621,0.396-2.886,1.187-3.791
			c0.792-0.904,1.833-1.357,3.125-1.357c0.747,0,1.378,0.129,1.89,0.384c0.513,0.257,1.013,0.652,1.5,1.183v-3.827
			c0-0.532,0.106-0.934,0.319-1.206c0.211-0.273,0.515-0.408,0.907-0.408c0.392,0,0.694,0.125,0.907,0.375
			c0.212,0.251,0.318,0.618,0.318,1.106v11.435c0,0.494-0.114,0.864-0.342,1.111c-0.228,0.246-0.522,0.37-0.883,0.37
			c-0.355,0-0.647-0.128-0.879-0.384C354.796,780.798,354.68,780.432,354.68,779.958z M349.581,776.149
			c0,0.703,0.108,1.301,0.327,1.795c0.218,0.494,0.518,0.866,0.898,1.115c0.379,0.251,0.794,0.377,1.243,0.377
			c0.457,0,0.873-0.119,1.249-0.357c0.377-0.236,0.678-0.602,0.902-1.091c0.225-0.491,0.337-1.105,0.337-1.839
			c0-0.69-0.112-1.284-0.337-1.782c-0.224-0.496-0.528-0.876-0.912-1.14c-0.384-0.262-0.803-0.393-1.259-0.393
			c-0.474,0-0.899,0.135-1.272,0.403c-0.373,0.269-0.663,0.654-0.869,1.158C349.683,774.9,349.581,775.484,349.581,776.149z"/>
		<path style="fill:#9B9B9A;" d="M365.279,768.522v3.96c0.487-0.506,0.984-0.895,1.491-1.163c0.506-0.269,1.134-0.403,1.881-0.403
			c0.861,0,1.616,0.204,2.266,0.611c0.648,0.41,1.151,1.002,1.51,1.777c0.357,0.774,0.537,1.695,0.537,2.76
			c0,0.785-0.1,1.504-0.299,2.16c-0.2,0.655-0.49,1.224-0.869,1.704c-0.38,0.482-0.841,0.855-1.382,1.117
			c-0.542,0.263-1.139,0.393-1.79,0.393c-0.4,0-0.775-0.047-1.125-0.143c-0.352-0.095-0.651-0.219-0.898-0.375
			c-0.246-0.154-0.457-0.314-0.631-0.479c-0.174-0.164-0.404-0.412-0.689-0.741v0.257c0,0.487-0.117,0.857-0.352,1.108
			c-0.233,0.25-0.531,0.374-0.892,0.374c-0.367,0-0.66-0.124-0.879-0.374c-0.219-0.251-0.328-0.62-0.328-1.108v-11.322
			c0-0.525,0.106-0.923,0.317-1.191c0.212-0.269,0.509-0.403,0.889-0.403c0.399,0,0.706,0.128,0.921,0.384
			C365.171,767.682,365.279,768.047,365.279,768.522z M365.402,776.225c0,1.032,0.236,1.824,0.708,2.378
			c0.472,0.555,1.091,0.833,1.857,0.833c0.652,0,1.214-0.283,1.686-0.851c0.472-0.567,0.708-1.379,0.708-2.437
			c0-0.683-0.097-1.273-0.294-1.766c-0.197-0.494-0.475-0.876-0.835-1.145c-0.361-0.268-0.783-0.403-1.264-0.403
			c-0.494,0-0.935,0.135-1.32,0.403c-0.386,0.269-0.69,0.658-0.912,1.168C365.513,774.915,365.402,775.522,365.402,776.225z"/>
		<path style="fill:#9B9B9A;" d="M376.324,781.763l0.237-0.58l-3.191-8.035c-0.196-0.461-0.295-0.798-0.295-1.007
			c0-0.222,0.057-0.427,0.171-0.616c0.114-0.19,0.271-0.343,0.47-0.456c0.2-0.115,0.407-0.172,0.622-0.172
			c0.373,0,0.655,0.119,0.846,0.357c0.19,0.237,0.357,0.577,0.503,1.02l2.194,6.383l2.08-5.936c0.164-0.48,0.313-0.858,0.446-1.13
			c0.133-0.273,0.273-0.456,0.422-0.55c0.148-0.096,0.359-0.144,0.632-0.144c0.197,0,0.385,0.052,0.565,0.157
			c0.18,0.105,0.319,0.245,0.418,0.423c0.098,0.177,0.148,0.363,0.148,0.56c-0.026,0.12-0.067,0.291-0.124,0.514
			c-0.058,0.221-0.127,0.447-0.209,0.674l-3.381,8.852c-0.292,0.779-0.577,1.389-0.855,1.832c-0.279,0.443-0.647,0.785-1.106,1.021
			c-0.46,0.238-1.078,0.356-1.857,0.356c-0.759,0-1.329-0.082-1.708-0.246c-0.381-0.166-0.57-0.467-0.57-0.903
			c0-0.297,0.089-0.528,0.271-0.689c0.18-0.161,0.448-0.243,0.801-0.243c0.14,0,0.276,0.02,0.409,0.058
			c0.164,0.037,0.306,0.057,0.427,0.057c0.297,0,0.532-0.044,0.704-0.134c0.17-0.088,0.324-0.241,0.461-0.461
			C375.99,782.509,376.147,782.187,376.324,781.763z"/>
		<path style="fill:#9B9B9A;" d="M413.887,771.121h0.618v-0.778c0-0.814,0.099-1.457,0.306-1.938
			c0.204-0.479,0.556-0.826,1.047-1.045c0.49-0.217,1.163-0.326,2.017-0.326c1.52,0,2.272,0.367,2.272,1.114
			c0,0.238-0.079,0.444-0.24,0.615c-0.154,0.169-0.343,0.256-0.558,0.256c-0.1,0-0.278-0.018-0.527-0.06
			c-0.237-0.033-0.452-0.056-0.623-0.056c-0.468,0-0.766,0.141-0.905,0.415c-0.127,0.275-0.195,0.669-0.195,1.185v0.617h0.633
			c0.991,0,1.482,0.297,1.482,0.896c0,0.419-0.127,0.69-0.393,0.805c-0.262,0.114-0.624,0.171-1.089,0.171h-0.633v6.871
			c0,0.511-0.12,0.9-0.369,1.168c-0.241,0.272-0.554,0.406-0.942,0.406c-0.367,0-0.671-0.134-0.918-0.406
			c-0.244-0.268-0.364-0.657-0.364-1.168v-6.871h-0.714c-0.389,0-0.683-0.084-0.894-0.262c-0.209-0.171-0.314-0.399-0.314-0.678
			C412.583,771.429,413.018,771.121,413.887,771.121"/>
		<path style="fill:#9B9B9A;" d="M422.376,777.695v2.168c0,0.523-0.133,0.919-0.374,1.18c-0.247,0.266-0.559,0.395-0.938,0.395
			c-0.382,0-0.687-0.131-0.927-0.4c-0.236-0.264-0.36-0.656-0.36-1.174v-7.223c0-1.166,0.42-1.749,1.261-1.749
			c0.434,0,0.743,0.135,0.934,0.408c0.189,0.273,0.295,0.674,0.317,1.208c0.308-0.534,0.624-0.935,0.948-1.208
			c0.332-0.273,0.763-0.408,1.31-0.408c0.548,0,1.072,0.135,1.585,0.408c0.515,0.273,0.771,0.637,0.771,1.085
			c0,0.315-0.11,0.58-0.326,0.781c-0.22,0.209-0.454,0.311-0.706,0.311c-0.1,0-0.331-0.063-0.692-0.18
			c-0.365-0.113-0.688-0.173-0.963-0.173c-0.38,0-0.692,0.103-0.932,0.298c-0.242,0.205-0.431,0.497-0.564,0.887
			c-0.129,0.395-0.219,0.865-0.273,1.404C422.399,776.256,422.376,776.917,422.376,777.695"/>
		<path style="fill:#9B9B9A;" d="M434.297,776.803h-5.075c0.009,0.588,0.124,1.11,0.355,1.559c0.235,0.446,0.54,0.786,0.925,1.017
			c0.384,0.227,0.803,0.34,1.268,0.34c0.311,0,0.593-0.033,0.85-0.111c0.254-0.069,0.505-0.185,0.745-0.341
			c0.242-0.152,0.46-0.318,0.664-0.5c0.202-0.175,0.467-0.416,0.79-0.719c0.135-0.113,0.324-0.174,0.568-0.174
			c0.269,0,0.482,0.074,0.65,0.222c0.166,0.147,0.243,0.351,0.243,0.617c0,0.235-0.089,0.508-0.268,0.819
			c-0.188,0.317-0.463,0.616-0.836,0.906c-0.374,0.285-0.839,0.527-1.398,0.714c-0.559,0.19-1.206,0.286-1.932,0.286
			c-1.671,0-2.964-0.473-3.886-1.422c-0.924-0.952-1.392-2.242-1.392-3.868c0-0.767,0.117-1.479,0.348-2.135
			c0.224-0.658,0.557-1.216,0.999-1.688c0.435-0.471,0.97-0.828,1.612-1.078c0.638-0.249,1.347-0.374,2.128-0.374
			c1.011,0,1.881,0.214,2.606,0.645c0.724,0.423,1.273,0.977,1.629,1.654c0.362,0.681,0.542,1.368,0.542,2.074
			c0,0.648-0.188,1.07-0.561,1.266C435.499,776.706,434.975,776.803,434.297,776.803 M429.223,775.328h4.702
			c-0.063-0.885-0.298-1.55-0.714-1.986c-0.418-0.442-0.959-0.66-1.641-0.66c-0.645,0-1.177,0.22-1.592,0.669
			C429.564,773.797,429.31,774.455,429.223,775.328"/>
		<path style="fill:#9B9B9A;" d="M445.084,776.803h-5.073c0.006,0.588,0.125,1.11,0.354,1.559c0.231,0.446,0.539,0.786,0.921,1.017
			c0.383,0.227,0.806,0.34,1.272,0.34c0.308,0,0.593-0.033,0.845-0.111c0.259-0.069,0.506-0.185,0.75-0.341
			c0.242-0.152,0.46-0.318,0.664-0.5c0.199-0.175,0.464-0.416,0.788-0.719c0.135-0.113,0.326-0.174,0.569-0.174
			c0.268,0,0.483,0.074,0.65,0.222c0.165,0.147,0.24,0.351,0.24,0.617c0,0.235-0.087,0.508-0.273,0.819
			c-0.177,0.317-0.455,0.616-0.83,0.906c-0.37,0.285-0.84,0.527-1.396,0.714c-0.557,0.19-1.208,0.286-1.934,0.286
			c-1.667,0-2.959-0.473-3.887-1.422c-0.924-0.952-1.389-2.242-1.389-3.868c0-0.767,0.116-1.479,0.348-2.135
			c0.227-0.658,0.559-1.216,0.996-1.688c0.436-0.471,0.973-0.828,1.614-1.078c0.638-0.249,1.351-0.374,2.129-0.374
			c1.009,0,1.878,0.214,2.613,0.645c0.72,0.423,1.266,0.977,1.621,1.654c0.359,0.681,0.545,1.368,0.545,2.074
			c0,0.648-0.191,1.07-0.561,1.266C446.284,776.706,445.76,776.803,445.084,776.803 M440.011,775.328h4.701
			c-0.064-0.885-0.304-1.55-0.715-1.986c-0.421-0.442-0.962-0.66-1.643-0.66c-0.645,0-1.176,0.22-1.593,0.669
			C440.349,773.797,440.095,774.455,440.011,775.328"/>
		<path style="fill:#9B9B9A;" d="M450.764,772.35v0.311c0.486-0.601,0.994-1.042,1.525-1.324c0.518-0.284,1.118-0.427,1.782-0.427
			c0.795,0,1.535,0.208,2.207,0.617c0.671,0.414,1.198,1.016,1.589,1.807c0.39,0.795,0.586,1.729,0.586,2.813
			c0,0.796-0.112,1.531-0.336,2.201c-0.224,0.668-0.537,1.227-0.929,1.68c-0.393,0.45-0.855,0.802-1.389,1.046
			c-0.542,0.241-1.112,0.363-1.728,0.363c-0.738,0-1.364-0.148-1.865-0.447c-0.503-0.292-0.983-0.733-1.441-1.306v3.893
			c0,1.136-0.416,1.71-1.244,1.71c-0.49,0-0.808-0.147-0.971-0.44c-0.152-0.299-0.234-0.724-0.234-1.291v-11.193
			c0-0.495,0.107-0.859,0.32-1.107c0.215-0.239,0.512-0.364,0.885-0.364c0.369,0,0.666,0.125,0.896,0.374
			C450.65,771.519,450.764,771.876,450.764,772.35 M455.848,776.118c0-0.685-0.106-1.273-0.314-1.763
			c-0.209-0.492-0.499-0.867-0.866-1.128c-0.367-0.263-0.782-0.397-1.233-0.397c-0.714,0-1.318,0.284-1.809,0.844
			c-0.492,0.566-0.74,1.396-0.74,2.493c0,1.026,0.245,1.833,0.736,2.406c0.487,0.573,1.086,0.858,1.813,0.858
			c0.429,0,0.83-0.126,1.198-0.372c0.371-0.253,0.665-0.627,0.883-1.127C455.736,777.432,455.848,776.826,455.848,776.118"/>
		<path style="fill:#9B9B9A;" d="M461.064,769.685c-0.362,0-0.669-0.114-0.923-0.335c-0.259-0.223-0.387-0.532-0.387-0.937
			c0-0.368,0.131-0.67,0.396-0.91c0.262-0.235,0.567-0.356,0.914-0.356c0.34,0,0.636,0.107,0.894,0.319
			c0.26,0.219,0.391,0.534,0.391,0.946c0,0.399-0.127,0.711-0.378,0.936C461.716,769.57,461.415,769.685,461.064,769.685
			 M462.348,772.363v7.502c0,0.516-0.124,0.908-0.37,1.172c-0.25,0.269-0.56,0.4-0.941,0.4c-0.381,0-0.685-0.134-0.928-0.406
			c-0.233-0.276-0.355-0.665-0.355-1.166v-7.428c0-0.51,0.122-0.895,0.355-1.154c0.243-0.265,0.547-0.392,0.928-0.392
			c0.381,0,0.691,0.127,0.941,0.392C462.224,771.543,462.348,771.905,462.348,772.363"/>
		<path style="fill:#9B9B9A;" d="M470.707,780.254l-2.284-3.766l-1.408,1.328v2.065c0,0.499-0.133,0.882-0.397,1.149
			c-0.257,0.272-0.566,0.406-0.906,0.406c-0.399,0-0.715-0.131-0.941-0.4c-0.226-0.264-0.344-0.656-0.344-1.174V768.8
			c0-0.573,0.114-1.011,0.331-1.313c0.223-0.305,0.545-0.452,0.953-0.452c0.399,0,0.713,0.137,0.949,0.411
			c0.234,0.271,0.354,0.674,0.354,1.202v6.293l2.916-3.063c0.362-0.376,0.633-0.641,0.827-0.778
			c0.189-0.139,0.419-0.208,0.689-0.208c0.326,0,0.594,0.103,0.815,0.309c0.211,0.206,0.32,0.466,0.32,0.773
			c0,0.379-0.354,0.889-1.055,1.521l-1.377,1.263l2.659,4.183c0.194,0.313,0.339,0.544,0.424,0.706
			c0.084,0.159,0.13,0.319,0.13,0.462c0,0.413-0.114,0.734-0.341,0.976c-0.224,0.236-0.523,0.353-0.886,0.353
			c-0.316,0-0.564-0.081-0.733-0.256C471.234,781.009,470.997,780.698,470.707,780.254"/>
		<path style="fill:#9B9B9A;" d="M476.343,781.437c-0.392,0-0.728-0.126-1.014-0.381c-0.284-0.249-0.429-0.606-0.429-1.064
			c0-0.386,0.138-0.719,0.41-0.995c0.275-0.279,0.607-0.419,1.008-0.419c0.398,0,0.735,0.14,1.023,0.412
			c0.279,0.275,0.422,0.612,0.422,1.002c0,0.452-0.142,0.808-0.422,1.059C477.054,781.312,476.722,781.437,476.343,781.437"/>
		<path style="fill:#9B9B9A;" d="M489.241,778.227c0,0.32-0.097,0.668-0.291,1.034c-0.191,0.37-0.488,0.718-0.886,1.05
			c-0.394,0.332-0.891,0.602-1.495,0.804c-0.6,0.202-1.28,0.307-2.03,0.307c-1.606,0-2.858-0.47-3.758-1.401
			c-0.895-0.935-1.346-2.19-1.346-3.76c0-1.067,0.204-2.006,0.619-2.824c0.408-0.815,1.004-1.447,1.781-1.894
			c0.779-0.448,1.716-0.67,2.794-0.67c0.674,0,1.288,0.098,1.852,0.295c0.561,0.195,1.032,0.451,1.425,0.759
			c0.387,0.315,0.686,0.644,0.89,0.992c0.207,0.352,0.307,0.681,0.307,0.987c0,0.308-0.113,0.571-0.343,0.787
			c-0.235,0.215-0.516,0.324-0.839,0.324c-0.219,0-0.398-0.057-0.541-0.166c-0.144-0.112-0.305-0.29-0.479-0.542
			c-0.317-0.479-0.646-0.842-0.996-1.079c-0.343-0.243-0.78-0.362-1.313-0.362c-0.762,0-1.384,0.298-1.854,0.897
			c-0.468,0.596-0.703,1.42-0.703,2.454c0,0.488,0.063,0.939,0.183,1.347c0.117,0.407,0.291,0.756,0.52,1.044
			c0.23,0.287,0.504,0.505,0.826,0.654c0.324,0.153,0.681,0.226,1.064,0.226c0.521,0,0.967-0.12,1.337-0.36
			c0.376-0.241,0.702-0.607,0.986-1.102c0.158-0.291,0.327-0.518,0.509-0.684c0.182-0.163,0.409-0.249,0.676-0.249
			c0.316,0,0.58,0.123,0.786,0.362C489.135,777.698,489.241,777.957,489.241,778.227"/>
		<path style="fill:#9B9B9A;" d="M500.432,776.167c0,0.77-0.122,1.484-0.355,2.139c-0.247,0.652-0.592,1.213-1.05,1.679
			c-0.455,0.469-1.002,0.828-1.632,1.08c-0.639,0.247-1.349,0.375-2.138,0.375c-0.785,0-1.493-0.128-2.121-0.383
			c-0.623-0.249-1.171-0.614-1.626-1.082c-0.461-0.477-0.809-1.034-1.052-1.677c-0.229-0.644-0.351-1.354-0.351-2.131
			c0-0.786,0.124-1.506,0.359-2.158c0.242-0.654,0.589-1.212,1.039-1.673c0.451-0.462,0.993-0.817,1.631-1.07
			c0.643-0.249,1.349-0.374,2.121-0.374c0.784,0,1.498,0.125,2.138,0.382c0.638,0.251,1.183,0.614,1.644,1.079
			c0.458,0.475,0.802,1.029,1.04,1.672C500.311,774.676,500.432,775.385,500.432,776.167 M497.828,776.167
			c0-1.059-0.234-1.881-0.698-2.469c-0.463-0.596-1.09-0.888-1.874-0.888c-0.508,0-0.955,0.132-1.343,0.394
			c-0.387,0.262-0.681,0.649-0.89,1.164c-0.209,0.514-0.315,1.113-0.315,1.799c0,0.679,0.103,1.268,0.31,1.773
			c0.208,0.511,0.502,0.897,0.886,1.166c0.386,0.267,0.835,0.404,1.353,0.404c0.784,0,1.411-0.296,1.874-0.892
			C497.594,778.028,497.828,777.208,497.828,776.167"/>
		<path style="fill:#9B9B9A;" d="M510.323,776.357v3.446c0,0.547-0.12,0.951-0.369,1.228c-0.25,0.272-0.572,0.408-0.978,0.408
			c-0.392,0-0.714-0.136-0.951-0.408c-0.247-0.276-0.372-0.681-0.372-1.228v-4.131c0-0.653-0.021-1.162-0.063-1.524
			c-0.046-0.353-0.168-0.655-0.363-0.883c-0.196-0.235-0.509-0.352-0.93-0.352c-0.851,0-1.408,0.29-1.677,0.881
			c-0.268,0.576-0.406,1.413-0.406,2.507v3.502c0,0.538-0.122,0.946-0.362,1.224c-0.249,0.273-0.567,0.412-0.965,0.412
			c-0.396,0-0.716-0.139-0.966-0.412c-0.252-0.277-0.376-0.686-0.376-1.224v-7.419c0-0.489,0.111-0.86,0.335-1.111
			c0.229-0.257,0.526-0.382,0.889-0.382c0.357,0,0.652,0.123,0.892,0.355c0.236,0.238,0.354,0.566,0.354,0.984v0.245
			c0.453-0.535,0.935-0.931,1.445-1.18c0.516-0.26,1.082-0.386,1.713-0.386c0.651,0,1.211,0.131,1.677,0.39
			c0.47,0.261,0.854,0.655,1.16,1.177c0.44-0.528,0.91-0.923,1.411-1.18c0.5-0.257,1.053-0.386,1.662-0.386
			c0.706,0,1.321,0.143,1.834,0.419c0.509,0.278,0.892,0.68,1.147,1.195c0.221,0.473,0.33,1.21,0.33,2.217v5.063
			c0,0.547-0.122,0.951-0.367,1.228c-0.246,0.272-0.575,0.408-0.979,0.408c-0.395,0-0.714-0.139-0.965-0.412
			c-0.25-0.277-0.376-0.686-0.376-1.224v-4.361c0-0.559-0.024-1.003-0.069-1.338c-0.047-0.337-0.177-0.62-0.383-0.847
			c-0.212-0.228-0.531-0.344-0.954-0.344c-0.341,0-0.666,0.107-0.973,0.308c-0.307,0.198-0.547,0.477-0.721,0.813
			C510.422,774.473,510.323,775.247,510.323,776.357"/>
		<g>
			<path style="fill:#9B9B9A;" d="M389.619,775.539c-0.002-0.005-0.002-0.01-0.002-0.017
				C389.617,775.529,389.617,775.534,389.619,775.539z"/>
			<path style="fill:#9B9B9A;" d="M389.75,776.368c0.002,0,0.002,0,0.003,0c-0.05-0.236-0.088-0.471-0.119-0.702
				C389.664,775.899,389.703,776.135,389.75,776.368z"/>
			<path style="fill:#9B9B9A;" d="M390.608,778.774c-0.006-0.01-0.011-0.021-0.017-0.033
				C390.598,778.753,390.602,778.765,390.608,778.774z"/>
			<path style="fill:#9B9B9A;" d="M390.526,778.614c-0.023-0.044-0.044-0.09-0.066-0.134
				C390.482,778.527,390.504,778.57,390.526,778.614z"/>
			<path style="fill:#9B9B9A;" d="M389.991,777.295c0.127,0.4,0.28,0.788,0.457,1.158c-0.18-0.378-0.33-0.766-0.454-1.158
				C389.994,777.295,389.992,777.295,389.991,777.295z"/>
			<path style="fill:#9B9B9A;" d="M399.656,765.602c0.501,0,0.871,0.04,1.295,0.111l0.12-0.763c0,0-1.171-0.36-2.71-0.234
				l-0.121-0.415c0.478-0.101,0.838-0.526,0.838-1.034c0-0.582-0.474-1.054-1.057-1.054c-0.583,0-1.055,0.472-1.055,1.054
				c0,0.508,0.358,0.933,0.836,1.034l0.134,0.463c-1.634,0.225-2.935,0.862-2.935,0.862l0.231,0.705
				c0.989-0.329,1.846-0.529,2.624-0.613C398.616,765.638,399.189,765.602,399.656,765.602z"/>
			<path style="fill:#9B9B9A;" d="M390.589,769.461l0.006-0.008c0.038-0.05,0.076-0.097,0.113-0.143l-0.313-0.226l-0.488-0.356
				c-0.027,0.038-0.795,0.744-1.401,2.048c-0.025-0.041-0.056-0.081-0.09-0.119c-0.181-0.198-0.435-0.3-0.758-0.294
				c-0.004,0-0.009,0-0.015,0c-0.2,0-0.337-0.067-0.427-0.147c0.089-0.113,0.143-0.256,0.143-0.413c0-0.368-0.3-0.669-0.67-0.669
				c-0.369,0-0.668,0.301-0.668,0.669c0,0.37,0.3,0.669,0.668,0.669c0.058,0,0.113-0.01,0.167-0.021
				c0.165,0.183,0.425,0.342,0.808,0.334c0.197-0.002,0.341,0.049,0.438,0.155c0.111,0.121,0.148,0.296,0.16,0.428
				c-0.001,0.002-0.001,0.005-0.003,0.005c-0.436,1.189-0.311,2.67-0.311,2.67l1.057,0.042c0.022-0.539,0.099-1.482,0.372-2.23
				C389.903,770.405,390.562,769.499,390.589,769.461z"/>
			<path style="fill:#9B9B9A;" d="M408.856,766.486c-0.368,0-0.669,0.299-0.669,0.669c0,0.058,0.009,0.112,0.024,0.165
				c-0.184,0.166-0.343,0.428-0.337,0.81c0.003,0.197-0.048,0.34-0.154,0.436c-0.085,0.075-0.191,0.115-0.296,0.141
				c-0.787-1.103-1.756-1.775-1.756-1.775l-0.759,0.813c0.573,0.522,1.159,1.175,1.728,1.99c0.394,0.563,0.799,1.29,1.136,2.015
				l1.025-0.486c0,0-0.468-1.155-1.126-2.191c0.114-0.04,0.229-0.102,0.331-0.192c0.2-0.181,0.299-0.437,0.293-0.758
				c-0.002-0.208,0.066-0.349,0.148-0.441c0.114,0.087,0.257,0.143,0.412,0.143c0.371,0,0.67-0.3,0.67-0.669
				C409.525,766.785,409.227,766.486,408.856,766.486z"/>
			<path style="fill:#9B9B9A;" d="M406.198,775.688c-1.409,0.686-3.728,1.594-6.781,2.019c-1.198,0.166-2.359,0.228-3.428,0.228
				c-1.391,0-2.62-0.104-3.562-0.223c-1.076-0.136-1.918-0.302-2.432-0.418c0.124,0.392,0.273,0.78,0.454,1.158
				c0.003,0.01,0.008,0.021,0.013,0.027c0.022,0.044,0.043,0.09,0.066,0.134c0.021,0.044,0.043,0.087,0.065,0.127
				c0.006,0.012,0.011,0.023,0.017,0.033c0.303,0.57,0.666,1.095,1.08,1.549c1.44,1.575,2.907,1.824,2.921,1.826l0.023,0.003
				l0.021,0.008c0.013,0.005,1.314,0.425,3.291,0.425c1.945,0,3.855-0.393,5.674-1.167c1.348-0.689,2.622-1.736,3.254-2.67
				c0.488-0.723,0.841-1.493,1.05-2.294c0.111-0.426,0.199-1.108,0.147-1.825C407.674,774.895,407.047,775.275,406.198,775.688z"/>
			<path style="fill:#9B9B9A;" d="M391.042,769.795c-0.041,0.06-0.652,0.925-1.135,2.253c-0.362,0.995-0.346,2.443-0.346,2.46v0.003
				c0,0.34,0.019,0.677,0.057,1.011c0,0.008,0,0.013,0.002,0.017c0.004,0.043,0.011,0.084,0.015,0.127
				c0.03,0.231,0.069,0.466,0.119,0.702c0.7,0.178,4.879,1.152,9.548,0.502c2.927-0.407,5.149-1.272,6.499-1.927
				c1.121-0.544,1.842-1.036,2.12-1.238c-0.277-1.028-1.042-2.641-1.743-3.647c-2.005-2.865-4.167-3.601-5.278-3.783
				c-0.424-0.069-0.763-0.109-1.243-0.109c-0.447,0-1.002,0.036-1.743,0.114c-0.743,0.077-1.572,0.272-2.532,0.596
				c-1.348,0.451-2.567,1.159-3.527,2.048l-0.033,0.03C391.68,769.085,391.383,769.36,391.042,769.795z M403.311,769.128
				c0.961,0,1.743,0.781,1.743,1.743c0,0.962-0.782,1.744-1.743,1.744c-0.962,0-1.742-0.782-1.742-1.744
				C401.568,769.909,402.349,769.128,403.311,769.128z M395.069,769.058c1.556,0,2.816,1.262,2.816,2.817
				c0,1.556-1.26,2.815-2.816,2.815c-1.555,0-2.816-1.259-2.816-2.815C392.253,770.32,393.515,769.058,395.069,769.058z"/>
		</g>
	</g>
	<g id="Botn_2_-_Verde">
	</g>
	<g id="Botn_3_-_Azul">
	</g>
	<g id="Botn_4_-_Rosa">
	</g>
	<g id="Vieta_1_-_Gris">
	</g>
	<g id="Vieta_3_-_Siguiente">
	</g>
	<g id="Vieta_6_-_Gris">
	</g>
	<g id="Barra_de_carga_3">
	</g>
</g>
</svg>
